<?xml version="1.0" encoding="utf-8"?>
<svg version="1.1" xmlns:xlink="http://www.w3.org/1999/xlink" width="43px" height="50px" xmlns="http://www.w3.org/2000/svg">
  <g transform="matrix(1 0 0 1 -174 -577 )">
    <path d="M 32.361979166666664 1.8973214285714302  L 41.096354166666664 10.60267857142857  C 41.618923611111114 11.123511904761902  42.06684027777778 11.830357142857146  42.440104166666664 12.723214285714285  C 42.81336805555556 13.61607142857143  43 14.434523809523808  43 15.17857142857143  L 43 47.32142857142857  C 43 48.06547619047619  42.73871527777778 48.697916666666664  42.216145833333336 49.21875  C 41.69357638888889 49.739583333333336  41.05902777777778 50  40.3125 50  L 2.6875 50  C 1.9409722222222225 50  1.3064236111111112 49.739583333333336  0.7838541666666667 49.21875  C 0.2612847222222222 48.697916666666664  0 48.06547619047619  0 47.32142857142857  L 0 2.67857142857143  C 0 1.9345238095238082  0.2612847222222222 1.3020833333333315  0.7838541666666667 0.78125  C 1.3064236111111112 0.2604166666666685  1.9409722222222225 0  2.6875 0  L 27.770833333333336 0  C 28.517361111111114 0  29.338541666666664 0.18601190476190688  30.234375 0.5580357142857151  C 31.130208333333336 0.9300595238095233  31.839409722222225 1.3764880952380931  32.361979166666664 1.8973214285714302  Z M 29.814453125 4.408482142857145  C 29.590494791666664 4.185267857142855  29.20789930555556 3.980654761904756  28 3.794642857142855  L 28 15  L 39.192708333333336 15  C 39.00607638888889 13.746279761904756  38.80078125 13.364955357142854  38.576822916666664 13.14174107142857  L 29.814453125 4.408482142857145  Z M 4 46  L 39 46  L 39 18  L 27.770833333333336 18  C 27.024305555555554 17.857142857142854  26.389756944444446 17.596726190476186  25.8671875 17.075892857142854  C 25.344618055555554 16.555059523809522  25.083333333333336 15.92261904761904  25 15.17857142857143  L 25 4  L 4 4  L 4 46  Z M 26.875 25  L 35.833333333333336 33.92857142857143  L 35.833333333333336 42  L 7.166666666666666 42  L 7.166666666666666 37.5  L 12.541666666666668 32.14285714285714  L 16.125 35.714285714285715  L 26.875 25  Z M 16.348958333333332 27.00892857142857  C 15.303819444444448 28.050595238095234  14.034722222222223 28.57142857142857  12.541666666666668 28.57142857142857  C 11.048611111111112 28.57142857142857  9.77951388888889 28.050595238095234  8.734375 27.00892857142857  C 7.689236111111112 25.967261904761905  7.166666666666666 24.70238095238095  7.166666666666666 23.214285714285715  C 7.166666666666666 21.726190476190478  7.689236111111112 20.461309523809522  8.734375 19.419642857142854  C 9.77951388888889 18.377976190476186  11.048611111111112 17.857142857142854  12.541666666666668 17.857142857142854  C 14.034722222222223 17.857142857142854  15.303819444444448 18.377976190476186  16.348958333333332 19.419642857142854  C 17.39409722222222 20.461309523809522  17.916666666666668 21.726190476190478  17.916666666666668 23.214285714285715  C 17.916666666666668 24.70238095238095  17.39409722222222 25.967261904761905  16.348958333333332 27.00892857142857  Z " fill-rule="nonzero" fill="#000000" stroke="none" transform="matrix(1 0 0 1 174 577 )" />
  </g>
</svg>