<?xml version="1.0" encoding="utf-8"?>
<svg version="1.1" xmlns:xlink="http://www.w3.org/1999/xlink" width="43px" height="50px" xmlns="http://www.w3.org/2000/svg">
  <g transform="matrix(1 0 0 1 -299 -577 )">
    <path d="M 14.333333333333332 10.714285714285715  L 17.916666666666668 10.714285714285715  L 17.916666666666668 7.142857142857145  L 14.333333333333332 7.142857142857145  L 14.333333333333332 10.714285714285715  Z M 17.916666666666668 14.285714285714285  L 21.5 14.285714285714285  L 21.5 10.714285714285715  L 17.916666666666668 10.714285714285715  L 17.916666666666668 14.285714285714285  Z M 14.333333333333332 17.857142857142854  L 17.916666666666668 17.857142857142854  L 17.916666666666668 14.285714285714285  L 14.333333333333332 14.285714285714285  L 14.333333333333332 17.857142857142854  Z M 17.916666666666668 21.42857142857143  L 21.5 21.42857142857143  L 21.5 17.857142857142854  L 17.916666666666668 17.857142857142854  L 17.916666666666668 21.42857142857143  Z M 32.361979166666664 1.8973214285714302  L 41.096354166666664 10.60267857142857  C 41.618923611111114 11.123511904761902  42.06684027777778 11.830357142857146  42.440104166666664 12.723214285714285  C 42.81336805555556 13.61607142857143  43 14.434523809523808  43 15.17857142857143  L 43 47.32142857142857  C 43 48.06547619047619  42.73871527777778 48.697916666666664  42.216145833333336 49.21875  C 41.69357638888889 49.739583333333336  41.05902777777778 50  40.3125 50  L 2.6875 50  C 1.9409722222222225 50  1.3064236111111112 49.739583333333336  0.7838541666666667 49.21875  C 0.2612847222222222 48.697916666666664  0 48.06547619047619  0 47.32142857142857  L 0 2.67857142857143  C 0 1.9345238095238082  0.2612847222222222 1.3020833333333315  0.7838541666666667 0.78125  C 1.3064236111111112 0.2604166666666685  1.9409722222222225 0  2.6875 0  L 27.770833333333336 0  C 28.517361111111114 0  29.338541666666664 0.18601190476190688  30.234375 0.5580357142857151  C 31.130208333333336 0.9300595238095233  31.839409722222225 1.3764880952380931  32.361979166666664 1.8973214285714302  Z M 29.814453125 4.408482142857145  C 29.590494791666664 4.185267857142855  29.20789930555556 3.980654761904756  28 3.794642857142855  L 28 15  L 39.192708333333336 15  C 39.00607638888889 13.746279761904756  38.80078125 13.364955357142854  38.576822916666664 13.14174107142857  L 29.814453125 4.408482142857145  Z M 4 46  L 39 46  L 39 18  L 27.770833333333336 18  C 27.024305555555554 17.857142857142854  26.389756944444446 17.596726190476186  25.8671875 17.075892857142854  C 25.344618055555554 16.555059523809522  25.083333333333336 15.92261904761904  25 15.17857142857143  L 25 3.57142857142857  L 21.5 3.57142857142857  L 21.5 7.142857142857145  L 17.916666666666668 7.142857142857145  L 17.916666666666668 4  L 4 4  L 4 46  Z M 21.220052083333332 25.362723214285715  C 21.53732638888889 25.604538690476186  21.751953125 25.92075892857143  21.863932291666664 26.31138392857143  L 24.859375 36.04910714285714  C 25.008680555555554 36.551339285714285  25.083333333333336 37.034970238095234  25.083333333333336 37.5  C 25.083333333333336 39.04389880952381  24.406792534722225 40.322730654761905  23.0537109375 41.336495535714285  C 21.70062934027778 42.350260416666664  19.98828125 42.85714285714286  17.916666666666668 42.85714285714286  C 15.845052083333332 42.85714285714286  14.132703993055557 42.350260416666664  12.779622395833332 41.336495535714285  C 11.42654079861111 40.322730654761905  10.75 39.04389880952381  10.75 37.5  C 10.75 37.034970238095234  10.824652777777777 36.551339285714285  10.973958333333332 36.04910714285714  C 11.365885416666668 34.87723214285714  12.485677083333332 31.19419642857143  14.333333333333332 25  L 14.333333333333332 21.42857142857143  L 17.916666666666668 21.42857142857143  L 17.916666666666668 25  L 20.128255208333332 25  C 20.53884548611111 25  20.90277777777778 25.120907738095234  21.220052083333332 25.362723214285715  Z M 15.383138020833332 38.75558035714286  C 16.0830078125 39.109002976190474  16.92751736111111 39.285714285714285  17.916666666666668 39.285714285714285  C 18.90581597222222 39.285714285714285  19.750325520833332 39.109002976190474  20.4501953125 38.75558035714286  C 21.150065104166668 38.402157738095234  21.5 37.983630952380956  21.5 37.5  C 21.5 37.016369047619044  21.150065104166668 36.597842261904766  20.4501953125 36.24441964285714  C 19.750325520833332 35.890997023809526  18.90581597222222 35.714285714285715  17.916666666666668 35.714285714285715  C 16.92751736111111 35.714285714285715  16.0830078125 35.890997023809526  15.383138020833332 36.24441964285714  C 14.683268229166668 36.597842261904766  14.333333333333332 37.016369047619044  14.333333333333332 37.5  C 14.333333333333332 37.983630952380956  14.683268229166668 38.402157738095234  15.383138020833332 38.75558035714286  Z " fill-rule="nonzero" fill="#000000" stroke="none" transform="matrix(1 0 0 1 299 577 )" />
  </g>
</svg>