<?xml version="1.0" encoding="utf-8"?>
<svg version="1.1" xmlns:xlink="http://www.w3.org/1999/xlink" width="98px" height="82px" xmlns="http://www.w3.org/2000/svg">
  <g transform="matrix(1 0 0 1 -147 -305 )">
    <path d="M 81.79434756464221 45.018465909090914  C 82.58007616756866 45.32907196969697  82.97294046903187 45.892045454545446  83 46.70738636363636  L 83 65.22727272727272  C 82.97294046903187 69.84753787878788  81.31308879534977 73.79805871212122  77.99338544798557 77.07883522727272  C 74.67368210062136 80.35961174242424  70.67628783323312 82  66.00120264582081 82  L 16.971737823211065 82  C 12.29665263579876 82  8.299258368410504 80.35961174242424  4.979555021046302 77.07883522727272  C 1.6598516736821003 73.79805871212122  0 69.84753787878788  0 65.22727272727272  L 0 16.772727272727277  C 0 12.152462121212112  1.6598516736821003 8.201941287878784  4.979555021046302 4.921164772727276  C 8.299258368410504 1.6403882575757496  12.29665263579876 0  16.971737823211065 0  L 66.00120264582081 0  C 68.47624774503909 0  70.77450390859892 0.4853219696969653  72.8959711365003 1.455965909090905  C 73.48526758869512 1.7277462121212066  73.83884546001202 2.174242424242422  73.956704750451 2.795454545454543  C 74.07456404088997 3.455492424242422  73.8977751052315 4.018465909090905  73.42633794347564 4.484375  L 70.53878532772099 7.338068181818181  C 70.14592102625778 7.72632575757575  69.69412707957507 7.920454545454543  69.18340348767288 7.920454545454543  C 69.06554419723392 7.920454545454543  68.88875526157547 7.8816287878787845  68.65303668069754 7.803977272727276  C 67.74944878733214 7.571022727272724  66.86550410903989 7.454545454545457  66.00120264582081 8  L 16.971737823211065 8  C 14.378833433553819 7.454545454545457  12.159150130286633 8.366950757575749  10.312687913409501 10.191761363636362  C 8.466225696532373 12.016571969696965  7.542994588093807 14.210227272727277  8 16.772727272727277  L 8 65.22727272727272  C 7.542994588093807 67.78977272727272  8.466225696532373 69.98342803030302  10.312687913409501 71.80823863636364  C 12.159150130286633 73.63304924242424  14.378833433553819 74.54545454545455  16.971737823211065 74  L 66.00120264582081 74  C 68.59410703547805 74.54545454545455  70.81379033874525 73.63304924242424  72.66025255562236 71.80823863636364  C 74.5067147724995 69.98342803030302  75.42994588093806 67.78977272727272  75 65.22727272727272  L 75 50.434659090909086  C 75.42994588093806 49.92992424242424  75.60673481659651 49.502840909090914  75.96031268791342 49.153409090909086  L 79.73180998196031 45.42613636363636  C 80.12467428342353 45.03787878787878  80.57646823010624 44.84375  81.08719182200842 44.84375  C 81.32291040288635 44.84375  81.55862898376428 44.90198863636364  81.79434756464221 45.018465909090914  Z M 98 14.909090909090905  C 98 16.190340909090907  97.52856283824414 17.296875  96.58568851473241 18.22869318181818  L 48.61695730607336 65.63494318181819  C 47.67408298256164 66.56676136363636  46.55441972339147 67.03267045454545  45.257967528562844 67.03267045454545  C 43.96151533373422 67.03267045454545  42.84185207456404 66.56676136363636  41.89897775105232 65.63494318181819  L 16.559230306674685 40.59232954545454  C 15.616355983162958 39.66051136363636  15.144918821407096 38.55397727272727  15.144918821407096 37.27272727272727  C 15.144918821407096 35.991477272727266  15.616355983162958 34.88494318181817  16.559230306674685 33.953125  L 23.041491280817798 27.546875  C 23.984365604329525 26.61505681818182  25.1040288634997 26.149147727272723  26.400481058328324 26.149147727272723  C 27.69693325315695 26.149147727272723  28.81659651232712 26.61505681818182  29.759470835838847 27.546875  L 45.257967528562844 42.86363636363636  L 83.38544798556825 5.1832386363636385  C 84.32832230907998 4.251420454545457  85.44798556825015 3.785511363636362  86.74443776307878 3.785511363636362  C 88.0408899579074 3.785511363636362  89.16055321707758 4.251420454545457  90.1034275405893 5.1832386363636385  L 96.58568851473241 11.589488636363638  C 97.52856283824414 12.521306818181818  98 13.627840909090905  98 14.909090909090905  Z " fill-rule="nonzero" fill="#9254de" stroke="none" transform="matrix(1 0 0 1 147 305 )" />
  </g>
</svg>