<?xml version="1.0" encoding="utf-8"?>
<svg version="1.1" xmlns:xlink="http://www.w3.org/1999/xlink" width="32px" height="32px" xmlns="http://www.w3.org/2000/svg">
  <g transform="matrix(1 0 0 1 -149 -671 )">
    <path d="M 24 14.854166666666668  C 24.444444444444446 15.104166666666668  24.666666666666668 15.48611111111111  24.666666666666668 16  C 24.666666666666668 16.513888888888886  24.444444444444446 16.895833333333336  24 17.145833333333336  L 12.666666666666666 23.8125  C 12.458333333333334 23.9375  12.236111111111112 24  12 24  C 11.777777777777779 24  11.555555555555557 23.944444444444443  11.333333333333334 23.833333333333336  C 10.888888888888891 23.569444444444443  10.666666666666666 23.18055555555555  11 22.666666666666664  L 11 9.333333333333332  C 10.666666666666666 8.819444444444443  10.888888888888891 8.430555555555554  11.333333333333334 8.166666666666668  C 11.791666666666666 7.916666666666668  12.236111111111112 7.923611111111111  12.666666666666666 8.1875  L 24 14.854166666666668  Z M 25.8125 21.6875  C 26.82638888888889 19.951388888888886  27.333333333333332 18.055555555555557  27.333333333333332 16  C 27.333333333333332 13.944444444444443  26.82638888888889 12.04861111111111  25.8125 10.3125  C 24.798611111111114 8.576388888888886  23.423611111111114 7.201388888888886  21.6875 6.1875  C 19.95138888888889 5.173611111111111  18.055555555555557 4.666666666666668  16 4.666666666666668  C 13.944444444444445 4.666666666666668  12.048611111111112 5.173611111111111  10.3125 6.1875  C 8.57638888888889 7.201388888888886  7.201388888888889 8.576388888888886  6.1875 10.3125  C 5.173611111111112 12.04861111111111  4.666666666666667 13.944444444444443  4.666666666666667 16  C 4.666666666666667 18.055555555555557  5.173611111111112 19.951388888888886  6.1875 21.6875  C 7.201388888888889 23.423611111111107  8.57638888888889 24.79861111111111  10.3125 25.8125  C 12.048611111111112 26.82638888888889  13.944444444444445 27.333333333333332  16 27.333333333333332  C 18.055555555555557 27.333333333333332  19.95138888888889 26.82638888888889  21.6875 25.8125  C 23.423611111111114 24.79861111111111  24.798611111111114 23.423611111111107  25.8125 21.6875  Z M 29.854166666666668 7.96875  C 31.284722222222218 10.420138888888886  32 13.097222222222218  32 16  C 32 18.90277777777778  31.284722222222218 21.579861111111107  29.854166666666668 24.03125  C 28.423611111111114 26.48263888888889  26.48263888888889 28.42361111111111  24.03125 29.854166666666668  C 21.579861111111114 31.284722222222225  18.90277777777778 32  16 32  C 13.097222222222223 32  10.42013888888889 31.284722222222225  7.96875 29.854166666666668  C 5.517361111111112 28.42361111111111  3.5763888888888893 26.48263888888889  2.1458333333333335 24.03125  C 0.7152777777777777 21.579861111111107  0 18.90277777777778  0 16  C 0 13.097222222222218  0.7152777777777777 10.420138888888886  2.1458333333333335 7.96875  C 3.5763888888888893 5.517361111111111  5.517361111111112 3.5763888888888857  7.96875 2.145833333333332  C 10.42013888888889 0.715277777777775  13.097222222222223 0  16 0  C 18.90277777777778 0  21.579861111111114 0.715277777777775  24.03125 2.145833333333332  C 26.48263888888889 3.5763888888888857  28.423611111111114 5.517361111111111  29.854166666666668 7.96875  Z " fill-rule="nonzero" fill="#f2f2f2" stroke="none" transform="matrix(1 0 0 1 149 671 )" />
  </g>
</svg>