<?xml version="1.0" encoding="utf-8"?>
<svg version="1.1" xmlns:xlink="http://www.w3.org/1999/xlink" width="14px" height="13px" xmlns="http://www.w3.org/2000/svg">
  <g transform="matrix(1 0 0 1 -290 -254 )">
    <path d="M 2.16015625 10.8515625  C 2.2756076388888893 10.752604166666666  2.333333333333333 10.635416666666666  2.333333333333333 10.5  C 2.333333333333333 10.364583333333334  2.2756076388888893 10.247395833333336  2.16015625 10.1484375  C 2.044704861111111 10.049479166666666  1.9079861111111114 10  1.75 10  C 1.592013888888889 10  1.455295138888889 10.049479166666666  1.33984375 10.1484375  C 1.2243923611111112 10.247395833333336  1.1666666666666665 10.364583333333334  1.1666666666666665 10.5  C 1.1666666666666665 10.635416666666666  1.2243923611111112 10.752604166666666  1.33984375 10.8515625  C 1.455295138888889 10.950520833333332  1.592013888888889 11  1.75 11  C 1.9079861111111114 11  2.044704861111111 10.950520833333332  2.16015625 10.8515625  Z M 12.637369791666668 6.6328125  C 12.76801215277778 6.393229166666666  12.833333333333332 6.182291666666666  12.833333333333332 6  C 12.833333333333332 5.734374999999999  12.71484375 5.501302083333332  12.477864583333332 5.30078125  C 12.240885416666668 5.100260416666666  11.970486111111112 5  11.666666666666668 5  L 8.458333333333332 5  C 8.458333333333332 4.697916666666666  8.604166666666668 4.282552083333332  8.895833333333332 3.7539062500000004  C 9.1875 3.225260416666666  9.333333333333332 2.807291666666666  9.333333333333332 2.5  C 9.333333333333332 1.9895833333333321  9.23611111111111 1.6119791666666656  9.041666666666668 1.3671875000000004  C 8.847222222222223 1.1223958333333326  8.458333333333334 0.9999999999999993  7.875 0.9999999999999993  C 7.717013888888889 1.1354166666666656  7.6015625 1.3567708333333326  7.528645833333333 1.6640625000000002  C 7.455729166666667 1.9713541666666665  7.363064236111111 2.2981770833333313  7.250651041666667 2.6445312499999996  C 7.138237847222223 2.990885416666666  6.957465277777779 3.276041666666666  6.708333333333334 3.5000000000000004  C 6.574652777777779 3.619791666666666  6.340711805555556 3.856770833333332  6.006510416666666 4.210937500000001  C 5.982204861111112 4.236979166666666  5.91232638888889 4.315104166666665  5.796875 4.4453125  C 5.681423611111112 4.575520833333332  5.585720486111112 4.682291666666667  5.509765625 4.765625  C 5.43381076388889 4.848958333333333  5.328993055555556 4.959635416666666  5.1953125 5.09765625  C 5.061631944444445 5.235677083333332  4.940104166666666 5.350260416666665  4.830729166666666 5.44140625  C 4.721354166666666 5.532552083333332  4.604383680555555 5.624999999999999  4.479817708333334 5.71875  C 4.355251736111112 5.8125  4.233723958333334 5.8828125  4.115234375 5.9296875  C 3.996744791666667 5.976562499999999  3.8888888888888897 6  3.7916666666666665 6  L 3.5 6  L 3.5 11  L 3.7916666666666665 11  C 3.8706597222222228 11  3.9663628472222228 11.0078125  4.078776041666666 11.0234375  C 4.191189236111112 11.0390625  4.291449652777779 11.055989583333334  4.379557291666666 11.07421875  C 4.467664930555556 11.092447916666666  4.583116319444445 11.12109375  4.725911458333334 11.16015625  C 4.868706597222222 11.19921875  4.975043402777779 11.229166666666666  5.044921875 11.25  C 5.114800347222222 11.270833333333334  5.22265625 11.303385416666666  5.368489583333334 11.34765625  C 5.514322916666666 11.391927083333334  5.602430555555556 11.419270833333334  5.6328125 11.4296875  C 6.914930555555556 11.809895833333334  7.953993055555556 12  8.75 12  L 9.852864583333332 12  C 11.01953125 12  11.602864583333332 11.565104166666666  11.602864583333332 10.6953125  C 11.602864583333332 10.559895833333334  11.587673611111112 10.4140625  11.557291666666668 10.2578125  C 11.739583333333332 10.174479166666668  11.883897569444445 10.037760416666666  11.990234375 9.84765625  C 12.096571180555557 9.657552083333332  12.149739583333332 9.466145833333332  12.149739583333332 9.2734375  C 12.149739583333332 9.080729166666666  12.095052083333332 8.901041666666666  11.985677083333332 8.734375  C 12.307725694444445 8.473958333333332  12.46875 8.1640625  12.46875 7.804687499999999  C 12.46875 7.674479166666666  12.438368055555557 7.529947916666666  12.377604166666668 7.37109375  C 12.31684027777778 7.212239583333333  12.240885416666668 7.088541666666667  12.149739583333332 7  C 12.34418402777778 6.994791666666666  12.506727430555557 6.872395833333332  12.637369791666668 6.6328125  Z M 13.307291666666668 4.59375  C 13.76909722222222 4.989583333333331  14 5.455729166666666  14 5.9921875  C 14 6.455729166666666  13.85112847222222 6.880208333333333  13.553385416666668 7.265625000000001  C 13.608072916666668 7.4375  13.635416666666668 7.6171875  13.635416666666668 7.804687499999999  C 13.635416666666668 8.205729166666666  13.51996527777778 8.580729166666666  13.2890625 8.9296875  C 13.307291666666668 9.0390625  13.31640625 9.151041666666664  13.31640625 9.265625  C 13.31640625 9.791666666666666  13.134114583333332 10.255208333333332  12.76953125 10.65625  C 12.77560763888889 11.380208333333334  12.517361111111112 11.951822916666666  11.994791666666668 12.37109375  C 11.472222222222223 12.790364583333334  10.782552083333332 13  9.92578125 13  L 9.59765625 13  L 8.75 13  C 8.166666666666668 13  7.5909288194444455 12.94140625  7.022786458333333 12.82421875  C 6.454644097222222 12.70703125  5.796875 12.536458333333334  5.049479166666666 12.3125  C 4.344618055555556 12.104166666666666  3.9253472222222228 12  3.7916666666666665 12  L 1.1666666666666665 12  C 0.8446180555555556 12  0.5696614583333334 11.90234375  0.341796875 11.70703125  C 0.11393229166666667 11.51171875  0 11.276041666666666  0 11  L 0 6  C 0 5.723958333333332  0.11393229166666667 5.488281249999999  0.341796875 5.29296875  C 0.5696614583333334 5.09765625  0.8446180555555556 5  1.1666666666666665 5  L 3.6640625 5  C 3.882812500000001 4.875  4.29904513888889 4.471354166666666  4.912760416666666 3.7890625  C 5.265190972222222 3.3984375000000004  5.590277777777779 3.0651041666666656  5.888020833333334 2.7890625000000004  C 6.033854166666666 2.6588541666666656  6.141710069444445 2.436197916666665  6.211588541666666 2.12109375  C 6.28146701388889 1.8059895833333321  6.374131944444445 1.4765624999999996  6.489583333333334 1.1328125000000007  C 6.605034722222222 0.7890625000000004  6.793402777777779 0.5078125  7.0546875 0.28906249999999933  C 7.291666666666667 0.0963541666666674  7.565104166666667 0  7.875 0  C 8.385416666666668 0  8.84418402777778 0.08463541666666763  9.251302083333332 0.25390625  C 9.65842013888889 0.42317708333333237  9.968315972222223 0.6875000000000004  10.180989583333332 1.046875  C 10.393663194444445 1.4062499999999993  10.5 1.8906249999999998  10.5 2.5  C 10.5 2.984375  10.354166666666668 3.484375  10.0625 4  L 11.666666666666668 4  C 12.298611111111112 4  12.845486111111112 4.197916666666666  13.307291666666668 4.59375  Z " fill-rule="nonzero" fill="#712ed1" stroke="none" transform="matrix(1 0 0 1 290 254 )" />
  </g>
</svg>