<?xml version="1.0" encoding="utf-8"?>
<svg version="1.1" xmlns:xlink="http://www.w3.org/1999/xlink" width="9px" height="15px" xmlns="http://www.w3.org/2000/svg">
  <g transform="matrix(1 0 0 1 -23 -49 )">
    <path d="M 9 2.1401985111662523  C 9 2.3014888337468973  8.944980694980694 2.441066997518609  8.834942084942085 2.55893300248139  L 4.222007722007722 7.5  L 8.834942084942085 12.44106699751861  C 8.944980694980694 12.558933002481389  9 12.698511166253102  9 12.859801488833748  C 9 13.02109181141439  8.944980694980694 13.160669975186105  8.834942084942085 13.278535980148883  L 7.392857142857142 14.823200992555831  C 7.282818532818533 14.941066997518611  7.152509652509653 15  7.001930501930502 15  C 6.851351351351353 15  6.721042471042471 14.941066997518611  6.611003861003861 14.823200992555831  L 0.16505791505791506 7.918734491315136  C 0.055019305019305104 7.800868486352356  0 7.661290322580645  0 7.5  C 0 7.338709677419355  0.055019305019305104 7.199131513647642  0.16505791505791506 7.081265508684864  L 6.611003861003861 0.17679900744416832  C 6.721042471042471 0.058933002481388885  6.851351351351353 0  7.001930501930502 0  C 7.152509652509653 0  7.282818532818533 0.058933002481388885  7.392857142857142 0.17679900744416832  L 8.834942084942085 1.7214640198511166  C 8.944980694980694 1.8393300248138944  9 1.978908188585606  9 2.1401985111662523  Z " fill-rule="nonzero" fill="#120238" stroke="none" transform="matrix(1 0 0 1 23 49 )" />
  </g>
</svg>