<?xml version="1.0" encoding="utf-8"?>
<svg version="1.1" xmlns:xlink="http://www.w3.org/1999/xlink" width="6px" height="6px" xmlns="http://www.w3.org/2000/svg">
  <g transform="matrix(1 0 0 1 -32 -562 )">
    <path d="M 35 562  C 36.68 562  38 563.32  38 565  C 38 566.68  36.68 568  35 568  C 33.32 568  32 566.68  32 565  C 32 563.32  33.32 562  35 562  Z " fill-rule="nonzero" fill="#490871" stroke="none" />
    <path d="M 35 562.5  C 36.4 562.5  37.5 563.6  37.5 565  C 37.5 566.4  36.4 567.5  35 567.5  C 33.6 567.5  32.5 566.4  32.5 565  C 32.5 563.6  33.6 562.5  35 562.5  Z " stroke-width="1" stroke="#797979" fill="none" />
  </g>
</svg>