<?xml version="1.0" encoding="utf-8"?>
<svg version="1.1" xmlns:xlink="http://www.w3.org/1999/xlink" width="18px" height="30px" xmlns="http://www.w3.org/2000/svg">
  <g transform="matrix(1 0 0 1 -188 -607 )">
    <path d="M 17.40625 13.681640625  C 17.802083333333336 14.052734374999998  18 14.492187499999998  18 15  C 18 15.507812499999998  17.802083333333336 15.947265624999998  17.40625 16.318359375  L 3.40625 29.443359375  C 3.010416666666667 29.814453125000004  2.541666666666667 30  2 30  C 1.4583333333333335 30  0.9895833333333334 29.814453125000004  0.59375 29.443359375  C 0.19791666666666669 29.072265624999996  0 28.632812499999996  0 28.125  L 0 1.875  C 0 1.3671874999999956  0.19791666666666669 0.9277343749999956  0.59375 0.556640625  C 0.9895833333333334 0.18554687499999778  1.4583333333333335 0  2 0  C 2.541666666666667 0  3.010416666666667 0.18554687499999778  3.40625 0.556640625  L 17.40625 13.681640625  Z " fill-rule="nonzero" fill="#490871" stroke="none" transform="matrix(1 0 0 1 188 607 )" />
  </g>
</svg>