<?xml version="1.0" encoding="utf-8"?>
<svg version="1.1" xmlns:xlink="http://www.w3.org/1999/xlink" width="30px" height="30px" xmlns="http://www.w3.org/2000/svg">
  <g transform="matrix(1 0 0 1 -57 -607 )">
    <path d="M 15.311284046692606 14.123376623376622  L 29.124513618677042 0.2922077922077915  C 29.370946822308696 0.04545454545454408  29.578469520103763 -0.03896103896104064  29.747081712062258 0.03896103896103731  C 29.915693904020753 0.11688311688311526  30 0.324675324675322  30 0.6623376623376609  L 30 29.33766233766234  C 30 29.675324675324674  29.915693904020753 29.883116883116884  29.747081712062258 29.961038961038962  C 29.578469520103763 30.03896103896104  29.370946822308696 29.954545454545457  29.124513618677042 29.70779220779221  L 15.311284046692606 15.876623376623378  C 15.194552529182882 15.759740259740258  15.110246433203635 15.636363636363637  15 15.50649350649351  L 15 29.33766233766234  C 15.058365758754864 29.675324675324674  14.974059662775618 29.883116883116884  14.805447470817121 29.961038961038962  C 14.636835278858628 30.03896103896104  14.429312581063556 29.954545454545457  14.182879377431906 29.70779220779221  L 0.3696498054474708 15.876623376623378  C 0.12321660181582379 15.629870129870127  0 15.337662337662335  0 15  C 0 14.662337662337661  0.12321660181582379 14.370129870129869  0.3696498054474708 14.123376623376622  L 14.182879377431906 0.2922077922077915  C 14.429312581063556 0.04545454545454408  14.636835278858628 -0.03896103896104064  14.805447470817121 0.03896103896103731  C 14.974059662775618 0.11688311688311526  15.058365758754864 0.324675324675322  15 0.6623376623376609  L 15 14.493506493506494  C 15.110246433203635 14.363636363636363  15.194552529182882 14.240259740259742  15.311284046692606 14.123376623376622  Z " fill-rule="nonzero" fill="#490871" stroke="none" transform="matrix(1 0 0 1 57 607 )" />
  </g>
</svg>