<?xml version="1.0" encoding="utf-8"?>
<svg version="1.1" xmlns:xlink="http://www.w3.org/1999/xlink" width="30px" height="30px" xmlns="http://www.w3.org/2000/svg">
  <g transform="matrix(1 0 0 1 -307 -607 )">
    <path d="M 14.688715953307392 15.876623376623378  L 0.8754863813229572 29.70779220779221  C 0.6290531776913101 29.954545454545457  0.42153047989623876 30.03896103896104  0.25291828793774324 29.961038961038962  C 0.08430609597924775 29.883116883116884  0 29.675324675324674  0 29.33766233766234  L 0 0.6623376623376609  C 0 0.324675324675322  0.08430609597924775 0.11688311688311526  0.25291828793774324 0.03896103896103731  C 0.42153047989623876 -0.03896103896104064  0.6290531776913101 0.04545454545454408  0.8754863813229572 0.2922077922077915  L 14.688715953307392 14.123376623376622  C 14.805447470817121 14.240259740259742  14.889753566796369 14.363636363636363  15 14.493506493506494  L 15 0.6623376623376609  C 14.941634241245136 0.324675324675322  15.025940337224384 0.11688311688311526  15.194552529182879 0.03896103896103731  C 15.363164721141377 -0.03896103896104064  15.570687418936448 0.04545454545454408  15.817120622568094 0.2922077922077915  L 29.63035019455253 14.123376623376622  C 29.876783398184184 14.370129870129869  30.000000000000007 14.662337662337661  30 15  C 30.000000000000007 15.337662337662335  29.876783398184184 15.629870129870127  29.63035019455253 15.876623376623378  L 15.817120622568094 29.70779220779221  C 15.570687418936448 29.954545454545457  15.363164721141377 30.03896103896104  15.194552529182879 29.961038961038962  C 15.025940337224384 29.883116883116884  14.941634241245136 29.675324675324674  15 29.33766233766234  L 15 15.50649350649351  C 14.889753566796369 15.636363636363637  14.805447470817121 15.759740259740258  14.688715953307392 15.876623376623378  Z " fill-rule="nonzero" fill="#490871" stroke="none" transform="matrix(1 0 0 1 307 607 )" />
  </g>
</svg>