<?xml version="1.0" encoding="utf-8"?>
<svg version="1.1" xmlns:xlink="http://www.w3.org/1999/xlink" width="14px" height="10px" xmlns="http://www.w3.org/2000/svg">
  <g transform="matrix(1 0 0 1 -233 -60 )">
    <path d="M 13.859719438877756 1.030927835051546  C 13.953239812959252 1.145475372279493  14 1.2772050400916368  14 1.426116838487973  C 14 1.5750286368843058  13.953239812959252 1.7067583046964474  13.859719438877756 1.8213058419243988  L 7.322645290581162 9.828178694158074  C 7.229124916499666 9.942726231386022  7.121576486305946 10  7 10  C 6.878423513694056 10  6.770875083500335 9.942726231386022  6.677354709418838 9.828178694158074  L 0.1402805611222445 1.8213058419243988  C 0.0467601870407483 1.7067583046964474  0 1.5750286368843058  0 1.426116838487973  C 0 1.2772050400916368  0.0467601870407483 1.145475372279493  0.1402805611222445 1.030927835051546  L 0.8416833667334669 0.1718213058419249  C 0.9352037408149636 0.057273768613973486  1.0427521710086842 0  1.1643286573146292 0  C 1.2859051436205746 0  1.3934535738142952 0.057273768613973486  1.4869739478957915 0.1718213058419249  L 7 6.9243986254295535  L 12.513026052104209 0.1718213058419249  C 12.606546426185705 0.057273768613973486  12.714094856379425 0  12.83567134268537 0  C 12.957247828991317 0  13.064796259185039 0.057273768613973486  13.158316633266534 0.1718213058419249  L 13.859719438877756 1.030927835051546  Z " fill-rule="nonzero" fill="#120238" stroke="none" transform="matrix(1 0 0 1 233 60 )" />
  </g>
</svg>