<?xml version="1.0" encoding="utf-8"?>
<svg version="1.1" xmlns:xlink="http://www.w3.org/1999/xlink" width="14px" height="10px" xmlns="http://www.w3.org/2000/svg">
  <g transform="matrix(1 0 0 1 -231 -60 )">
    <path d="M 0.14028056112224463 8.969072164948454  C 0.04676018704074769 8.854524627720506  0 8.722794959908363  0 8.573883161512027  C 0 8.424971363115695  0.04676018704074769 8.293241695303553  0.14028056112224463 8.1786941580756  L 6.677354709418838 0.1718213058419249  C 6.770875083500334 0.05727376861397793  6.878423513694054 0  7 0  C 7.121576486305944 0  7.229124916499665 0.05727376861397793  7.322645290581162 0.1718213058419249  L 13.859719438877756 8.1786941580756  C 13.953239812959252 8.293241695303553  14 8.424971363115695  14 8.573883161512027  C 14 8.722794959908363  13.953239812959252 8.854524627720506  13.859719438877756 8.969072164948454  L 13.158316633266534 9.828178694158074  C 13.064796259185037 9.942726231386027  12.957247828991317 10  12.83567134268537 10  C 12.714094856379425 10  12.606546426185703 9.942726231386027  12.513026052104209 9.828178694158074  L 7 3.075601374570447  L 1.4869739478957915 9.828178694158074  C 1.3934535738142946 9.942726231386027  1.285905143620574 10  1.1643286573146296 10  C 1.0427521710086822 10  0.9352037408149616 9.942726231386027  0.8416833667334662 9.828178694158074  L 0.14028056112224463 8.969072164948454  Z " fill-rule="nonzero" fill="#120238" stroke="none" transform="matrix(1 0 0 1 231 60 )" />
  </g>
</svg>