<?xml version="1.0" encoding="utf-8"?>
<svg version="1.1" xmlns:xlink="http://www.w3.org/1999/xlink" width="23px" height="18px" xmlns="http://www.w3.org/2000/svg">
  <g transform="matrix(1 0 0 1 -1210 -638 )">
    <path d="M 6.23291015625 5.0125899280575545  C 6.420084635416668 4.836330935251797  6.513671875 4.60071942446043  6.513671875 4.305755395683453  C 6.513671875 4.0107913669064725  6.420084635416668 3.773381294964028  6.23291015625 3.5935251798561145  C 6.045735677083334 3.4136690647482015  5.798665364583334 3.323741007194244  5.49169921875 3.323741007194244  C 5.169759114583334 3.323741007194244  4.88525390625 3.4154676258992813  4.63818359375 3.598920863309352  C 4.39111328125 3.7823741007194247  4.267578125 4.01798561151079  4.267578125 4.305755395683453  C 4.267578125 4.586330935251798  4.39111328125 4.818345323741007  4.63818359375 5.00179856115108  C 4.88525390625 5.185251798561151  5.169759114583334 5.276978417266186  5.49169921875 5.276978417266186  C 5.798665364583334 5.276978417266186  6.045735677083334 5.188848920863308  6.23291015625 5.0125899280575545  Z M 14.571533203125 10.327338129496402  C 14.762451171875 10.169064748201437  14.85791015625 9.985611510791365  14.85791015625 9.776978417266186  C 14.85791015625 9.575539568345322  14.762451171875 9.39568345323741  14.571533203125 9.237410071942445  C 14.380615234375 9.07913669064748  14.135416666666668 9  13.8359375 9  C 13.6337890625 9  13.448486328125 9.080935251798563  13.280029296875 9.242805755395684  C 13.111572265625 9.404676258992804  13.02734375 9.582733812949641  13.02734375 9.776978417266186  C 13.02734375 9.978417266187051  13.111572265625 10.160071942446042  13.280029296875 10.321942446043165  C 13.448486328125 10.483812949640289  13.6337890625 10.56474820143885  13.8359375 10.56474820143885  C 14.135416666666668 10.56474820143885  14.380615234375 10.485611510791367  14.571533203125 10.327338129496402  Z M 11.932373046875 5.0125899280575545  C 12.115804036458336 4.836330935251797  12.20751953125 4.60071942446043  12.20751953125 4.305755395683453  C 12.20751953125 4.0107913669064725  12.115804036458336 3.773381294964028  11.932373046875 3.5935251798561145  C 11.748942057291668 3.4136690647482015  11.503743489583336 3.323741007194244  11.19677734375 3.323741007194244  C 10.874837239583336 3.323741007194244  10.590332031250002 3.4154676258992813  10.34326171875 3.598920863309352  C 10.096191406250002 3.7823741007194247  9.972656250000002 4.01798561151079  9.97265625 4.305755395683453  C 9.972656250000002 4.586330935251798  10.096191406250002 4.818345323741007  10.34326171875 5.00179856115108  C 10.590332031250002 5.185251798561151  10.874837239583336 5.276978417266186  11.19677734375 5.276978417266186  C 11.503743489583336 5.276978417266186  11.748942057291668 5.188848920863308  11.932373046875 5.0125899280575545  Z M 19.046875 10.327338129496402  C 19.241536458333336 10.169064748201437  19.338867187500004 9.985611510791365  19.3388671875 9.776978417266186  C 19.338867187500004 9.575539568345322  19.241536458333336 9.39568345323741  19.046875 9.237410071942445  C 18.852213541666668 9.07913669064748  18.60888671875 9  18.31689453125 9  C 18.11474609375 9  17.929443359375 9.080935251798563  17.760986328125 9.242805755395684  C 17.592529296875 9.404676258992804  17.50830078125 9.582733812949641  17.50830078125 9.776978417266186  C 17.50830078125 9.978417266187051  17.592529296875 10.160071942446042  17.760986328125 10.321942446043165  C 17.929443359375 10.483812949640289  18.11474609375 10.56474820143885  18.31689453125 10.56474820143885  C 18.60888671875 10.56474820143885  18.852213541666668 10.485611510791367  19.046875 10.327338129496402  Z M 14.818603515625 2.681654676258992  C 15.608479817708336 3.5197841726618693  16.119466145833336 4.456834532374101  16.3515625 5.4928057553956835  C 16.119466145833336 5.464028776978417  15.857421875 5.4496402877697845  15.5654296875 5.4496402877697845  C 14.300130208333336 5.4496402877697845  13.135904947916668 5.72661870503597  12.07275390625 6.280575539568346  C 11.009602864583336 6.834532374100718  10.172932942708336 7.58453237410072  9.562744140625 8.530575539568346  C 8.952555338541668 9.476618705035971  8.6474609375 10.510791366906474  8.6474609375 11.633093525179856  C 8.6474609375 12.194244604316546  8.733561197916668 12.741007194244604  8.90576171875 13.27338129496403  C 8.643717447916668 13.29496402877698  8.38916015625 13.305755395683455  8.14208984375 13.305755395683455  C 7.947428385416668 13.305755395683455  7.76025390625 13.300359712230215  7.58056640625 13.28956834532374  C 7.40087890625 13.278776978417266  7.194986979166668 13.255395683453237  6.962890625 13.219424460431654  C 6.730794270833334 13.183453237410072  6.564208984375 13.158273381294963  6.463134765625 13.143884892086332  C 6.362060546875 13.129496402877695  6.158040364583334 13.091726618705035  5.85107421875 13.030575539568346  C 5.544108072916668 12.969424460431654  5.356933593750001 12.931654676258992  5.28955078125 12.917266187050359  L 2.4482421875 14.28776978417266  L 3.2568359375 11.93525179856115  C 1.0856119791666665 10.474820143884891  0 8.712230215827336  0 6.64748201438849  C 0 5.431654676258992  0.364990234375 4.312949640287767  1.094970703125 3.2913669064748197  C 1.8249511718750002 2.2697841726618697  2.8132324218750004 1.4658273381294946  4.059814453125 0.8794964028776984  C 5.306396484375001 0.2931654676258981  6.667154947916668 0  8.14208984375 0  C 9.459798177083334 0  10.704508463541668 0.23741007194244657  11.876220703125 0.7122302158273377  C 13.047932942708336 1.1870503597122308  14.028727213541668 1.843525179856115  14.818603515625 2.681654676258992  Z M 22.039794921875 8.703237410071942  C 22.679931640625 9.577338129496404  23 10.525179856115107  23 11.546762589928058  C 23 12.388489208633093  22.743570963541668 13.192446043165468  22.230712890625 13.95863309352518  C 21.717854817708336 14.724820143884893  21.023437500000004 15.420863309352518  20.1474609375 16.046762589928058  L 20.76513671875 18  L 18.5302734375 16.823741007194243  C 17.4072265625 17.08992805755396  16.591145833333336 17.223021582733814  16.08203125 17.223021582733814  C 14.816731770833336 17.223021582733814  13.652506510416668 16.969424460431654  12.58935546875 16.462230215827336  C 11.526204427083336 15.955035971223023  10.689534505208334 15.266187050359711  10.079345703125 14.39568345323741  C 9.469156901041668 13.525179856115107  9.164062500000002 12.575539568345324  9.1640625 11.546762589928058  C 9.164062500000002 10.51798561151079  9.469156901041668 9.568345323741006  10.079345703125 8.697841726618705  C 10.689534505208334 7.827338129496401  11.526204427083336 7.138489208633093  12.58935546875 6.631294964028777  C 13.652506510416668 6.12410071942446  14.816731770833336 5.870503597122301  16.08203125 5.870503597122301  C 17.287434895833336 5.870503597122301  18.421712239583336 6.12410071942446  19.48486328125 6.631294964028777  C 20.548014322916668 7.138489208633093  21.399658203125 7.8291366906474815  22.039794921875 8.703237410071942  Z " fill-rule="nonzero" fill="#000000" stroke="none" transform="matrix(1 0 0 1 1210 638 )" />
  </g>
</svg>