<?xml version="1.0" encoding="utf-8"?>
<svg version="1.1" xmlns:xlink="http://www.w3.org/1999/xlink" width="14px" height="14px" xmlns="http://www.w3.org/2000/svg">
  <g transform="matrix(1 0 0 1 -178 -299 )">
    <path d="M 8.5859375 8.5859375  C 9.32351762820513 7.8483573717948705  9.692307692307692 6.960737179487179  9.692307692307692 5.923076923076923  C 9.692307692307692 4.885416666666666  9.32351762820513 3.9977964743589736  8.5859375 3.260216346153846  C 7.848357371794872 2.522636217948717  6.96073717948718 2.153846153846154  5.923076923076923 2.153846153846154  C 4.885416666666667 2.153846153846154  3.9977964743589753 2.522636217948717  3.260216346153846 3.260216346153846  C 2.522636217948718 3.9977964743589736  2.153846153846154 4.885416666666666  2.153846153846154 5.923076923076923  C 2.153846153846154 6.960737179487179  2.522636217948718 7.8483573717948705  3.260216346153846 8.5859375  C 3.9977964743589753 9.323517628205126  4.885416666666667 9.692307692307692  5.923076923076923 9.692307692307692  C 6.96073717948718 9.692307692307692  7.848357371794872 9.323517628205126  8.5859375 8.5859375  Z M 13.688701923076923 12.165865384615383  C 13.896233974358974 12.373397435897438  14 12.625801282051283  14 12.923076923076923  C 14 13.214743589743591  13.893429487179489 13.467147435897438  13.680288461538462 13.680288461538462  C 13.467147435897438 13.893429487179487  13.214743589743591 14  12.923076923076923 14  C 12.620192307692308 14  12.367788461538462 13.893429487179487  12.165865384615383 13.680288461538462  L 9.280048076923077 10.802884615384617  C 8.276041666666668 11.498397435897438  7.157051282051283 11.846153846153847  5.923076923076923 11.846153846153847  C 5.12099358974359 11.846153846153847  4.353966346153846 11.690504807692308  3.621995192307692 11.379206730769232  C 2.8900240384615383 11.067908653846153  2.259014423076923 10.647235576923077  1.7289663461538463 10.1171875  C 1.1989182692307692 9.587139423076923  0.7782451923076925 8.956129807692308  0.46694711538461536 8.224158653846153  C 0.15564903846153846 7.4921875  0 6.7251602564102555  0 5.923076923076923  C 0 5.120993589743588  0.15564903846153846 4.353966346153846  0.46694711538461536 3.621995192307692  C 0.7782451923076925 2.8900240384615383  1.1989182692307692 2.259014423076924  1.7289663461538463 1.728966346153846  C 2.259014423076923 1.1989182692307698  2.8900240384615383 0.7782451923076921  3.621995192307692 0.46694711538461586  C 4.353966346153846 0.1556490384615381  5.12099358974359 0  5.923076923076923 0  C 6.725160256410256 0  7.4921875 0.1556490384615381  8.224158653846153 0.46694711538461586  C 8.956129807692308 0.7782451923076921  9.587139423076923 1.1989182692307698  10.1171875 1.728966346153846  C 10.647235576923077 2.259014423076924  11.067908653846153 2.8900240384615383  11.37920673076923 3.621995192307692  C 11.690504807692308 4.353966346153846  11.846153846153847 5.120993589743588  11.846153846153847 5.923076923076923  C 11.846153846153847 7.157051282051281  11.498397435897438 8.276041666666666  10.802884615384617 9.280048076923077  L 13.688701923076923 12.165865384615383  Z " fill-rule="nonzero" fill="#808080" stroke="none" transform="matrix(1 0 0 1 178 299 )" />
  </g>
</svg>