<?xml version="1.0" encoding="utf-8"?>
<svg version="1.1" xmlns:xlink="http://www.w3.org/1999/xlink" width="18px" height="12px" xmlns="http://www.w3.org/2000/svg">
  <g transform="matrix(1 0 0 1 -306 -13 )">
    <path d="M 1.5 11.453333666666595  C 0.9477152501692103 11.453333666666595  0.5 11.005618416497327  0.5 10.453333666666595  C 0.5 10.453333666666595  0.5 8.453333666666595  0.5 8.453333666666595  C 0.5 7.901048916835862  0.9477152501692103 7.453333666666595  1.5000000000000568 7.453333666666595  C 1.5000000000000568 7.453333666666595  2.500000000000057 7.453333666666595  2.500000000000057 7.453333666666595  C 3.0522847498307897 7.453333666666595  3.5 7.901048916835862  3.5 8.453333666666595  C 3.5 8.453333666666595  3.5 10.453333666666595  3.5 10.453333666666595  C 3.5 11.005618416497327  3.0522847498307897 11.453333666666595  2.5 11.453333666666595  C 2.5 11.453333666666595  1.5 11.453333666666595  1.5 11.453333666666595  Z M 7.166666666666686 11.453333666666595  C 7.166666666666686 11.453333666666595  6.166666666666686 11.453333666666595  6.166666666666686 11.453333666666595  C 5.614381916835896 11.453333666666595  5.166666666666686 11.005618416497327  5.166666666666686 10.453333666666595  C 5.166666666666686 10.453333666666595  5.166666666666686 6.453333666666595  5.166666666666686 6.453333666666595  C 5.166666666666686 5.901048916835862  5.614381916835896 5.453333666666595  6.166666666666686 5.453333666666595  C 6.166666666666686 5.453333666666595  7.166666666666686 5.453333666666595  7.166666666666686 5.453333666666595  C 7.718951416497475 5.453333666666595  8.166666666666686 5.901048916835862  8.166666666666686 6.453333666666595  C 8.166666666666686 6.453333666666595  8.166666666666686 10.453333666666595  8.166666666666686 10.453333666666595  C 8.166666666666686 11.005618416497327  7.718951416497475 11.453333666666595  7.166666666666686 11.453333666666595  Z M 10.833333333333428 11.453333666666367  C 10.281048583502638 11.453333666666367  9.833333333333428 11.0056184164971  9.833333333333428 10.453333666666367  C 9.833333333333428 10.453333666666367  9.833333333333428 4.12000033333311  9.833333333333428 4.12000033333311  C 9.833333333333428 3.567715583502377  10.281048583502638 3.1200003333331097  10.833333333333428 3.1200003333331097  C 10.833333333333428 3.1200003333331097  11.833333333333428 3.1200003333331097  11.833333333333428 3.1200003333331097  C 12.385618083164218 3.1200003333331097  12.833333333333428 3.567715583502377  12.833333333333428 4.12000033333311  C 12.833333333333428 4.12000033333311  12.833333333333428 10.453333666666367  12.833333333333428 10.453333666666367  C 12.833333333333428 11.0056184164971  12.385618083164218 11.453333666666367  11.833333333333428 11.453333666666367  C 11.833333333333428 11.453333666666367  10.833333333333428 11.453333666666367  10.833333333333428 11.453333666666367  Z M 14.5 1.7866669999998521  C 14.5 1.2343822501691193  14.94771525016921 0.7866669999998521  15.500000000000057 0.7866669999998521  C 15.500000000000057 0.7866669999998521  16.500000000000057 0.7866669999998521  16.500000000000057 0.7866669999998521  C 17.05228474983079 0.7866669999998521  17.5 1.2343822501691193  17.5 1.7866669999998521  C 17.5 1.7866669999998521  17.5 10.453333666666595  17.5 10.453333666666595  C 17.5 11.005618416497327  17.05228474983079 11.453333666666595  16.5 11.453333666666595  C 16.5 11.453333666666595  15.5 11.453333666666595  15.5 11.453333666666595  C 14.94771525016921 11.453333666666595  14.5 11.005618416497327  14.5 10.453333666666595  C 14.5 10.453333666666595  14.5 1.7866669999998521  14.5 1.7866669999998521  Z " fill-rule="nonzero" fill="#000000" stroke="none" transform="matrix(1 0 0 1 306 13 )" />
  </g>
</svg>