<?xml version="1.0" encoding="utf-8"?>
<svg version="1.1" xmlns:xlink="http://www.w3.org/1999/xlink" width="20px" height="20px" xmlns="http://www.w3.org/2000/svg">
  <g transform="matrix(1 0 0 1 -27 -53 )">
    <path d="M 19.52861952861953 14.949494949494948  C 19.84287317620651 15.263748597081928  20 15.645342312008976  20 16.094276094276093  C 20 16.543209876543212  19.84287317620651 16.92480359147026  19.52861952861953 17.23905723905724  L 17.23905723905724 19.52861952861953  C 16.924803591470262 19.84287317620651  16.54320987654321 20  16.094276094276093 20  C 15.645342312008982 20  15.263748597081932 19.84287317620651  14.94949494949495 19.52861952861953  L 10 14.579124579124581  L 5.050505050505051 19.52861952861953  C 4.73625140291807 19.84287317620651  4.354657687991022 20  3.9057239057239057 20  C 3.4567901234567904 20  3.0751964085297425 19.84287317620651  2.7609427609427613 19.52861952861953  L 0.4713804713804714 17.23905723905724  C 0.1571268237934906 16.92480359147026  0 16.543209876543212  0 16.094276094276093  C 0 15.645342312008976  0.1571268237934906 15.263748597081928  0.4713804713804714 14.949494949494948  L 5.42087542087542 10  L 0.4713804713804714 5.05050505050505  C 0.1571268237934906 4.736251402918068  0 4.354657687991022  0 3.9057239057239057  C 0 3.45679012345679  0.1571268237934906 3.075196408529739  0.4713804713804714 2.7609427609427617  L 2.7609427609427613 0.47138047138047146  C 3.0751964085297425 0.15712682379348974  3.4567901234567904 0  3.9057239057239057 0  C 4.354657687991022 0  4.73625140291807 0.15712682379348974  5.050505050505051 0.47138047138047146  L 10 5.420875420875422  L 14.94949494949495 0.47138047138047146  C 15.263748597081932 0.15712682379348974  15.645342312008982 0  16.094276094276093 0  C 16.54320987654321 0  16.924803591470262 0.15712682379348974  17.23905723905724 0.47138047138047146  L 19.52861952861953 2.7609427609427617  C 19.84287317620651 3.075196408529739  20 3.45679012345679  20 3.9057239057239057  C 20 4.354657687991022  19.84287317620651 4.736251402918068  19.52861952861953 5.05050505050505  L 14.579124579124578 10  L 19.52861952861953 14.949494949494948  Z " fill-rule="nonzero" fill="#ffffff" stroke="none" transform="matrix(1 0 0 1 27 53 )" />
  </g>
</svg>