<?xml version="1.0" encoding="utf-8"?>
<svg version="1.1" xmlns:xlink="http://www.w3.org/1999/xlink" width="90px" height="90px" xmlns="http://www.w3.org/2000/svg">
  <g transform="matrix(1 0 0 1 -152 -683 )">
    <path d="M 197 687  C 219.96 687  238 705.04  238 728  C 238 750.96  219.96 769  197 769  C 174.04 769  156 750.96  156 728  C 156 705.04  174.04 687  197 687  Z " fill-rule="nonzero" fill="#ffffff" stroke="none" fill-opacity="0" />
    <path d="M 197 685.5  C 220.8 685.5  239.5 704.2  239.5 728  C 239.5 751.8  220.8 770.5  197 770.5  C 173.2 770.5  154.5 751.8  154.5 728  C 154.5 704.2  173.2 685.5  197 685.5  Z " stroke-width="5" stroke="#ffffff" fill="none" />
  </g>
</svg>