<?xml version="1.0" encoding="utf-8"?>
<svg version="1.1" xmlns:xlink="http://www.w3.org/1999/xlink" width="23px" height="20px" xmlns="http://www.w3.org/2000/svg">
  <g transform="matrix(1 0 0 1 -20 -362 )">
    <path d="M 9.383680555555555 11.666666666666664  L 12.764467592592593 11.666666666666664  L 13.616319444444443 8.333333333333332  L 10.235532407407407 8.333333333333332  L 9.383680555555555 11.666666666666664  Z M 22.906828703703702 4.739583333333332  C 22.986689814814813 4.84375  23.013310185185187 4.965277777777777  22.986689814814813 5.104166666666668  L 22.241319444444443 8.020833333333332  C 22.179205246913583 8.229166666666668  22.041666666666668 8.333333333333332  21.828703703703702 8.333333333333332  L 17.476273148148145 8.333333333333332  L 16.624421296296298 11.666666666666664  L 20.76388888888889 11.666666666666664  C 20.89699074074074 11.666666666666664  21.00790895061729 11.71875  21.09664351851852 11.822916666666664  C 21.185378086419753 11.944444444444443  21.211998456790127 12.065972222222223  21.17650462962963 12.1875  L 20.43113425925926 15.104166666666668  C 20.386766975308642 15.3125  20.24922839506173 15.416666666666668  20.01851851851852 15.416666666666668  L 15.666087962962964 15.416666666666668  L 14.587962962962964 19.6875  C 14.525848765432102 19.895833333333332  14.388310185185185 20  14.175347222222221 20  L 11.19386574074074 20  C 11.051890432098766 20  10.936535493827162 19.947916666666668  10.847800925925927 19.84375  C 10.767939814814815 19.739583333333332  10.741319444444445 19.618055555555557  10.767939814814815 19.479166666666668  L 11.80613425925926 15.416666666666668  L 8.425347222222221 15.416666666666668  L 7.347222222222221 19.6875  C 7.285108024691359 19.895833333333332  7.147569444444445 20  6.934606481481482 20  L 3.939814814814815 20  C 3.8067129629629632 20  3.6957947530864197 19.947916666666668  3.607060185185185 19.84375  C 3.527199074074074 19.739583333333332  3.5005787037037037 19.618055555555557  3.527199074074074 19.479166666666668  L 4.565393518518519 15.416666666666668  L 0.42592592592592593 15.416666666666668  C 0.29282407407407407 15.416666666666668  0.1819058641975309 15.364583333333332  0.0931712962962963 15.260416666666668  C 0.013310185185185185 15.15625  -0.013310185185185137 15.034722222222223  0.013310185185185185 14.895833333333336  L 0.7586805555555556 11.979166666666664  C 0.8207947530864196 11.770833333333336  0.9583333333333333 11.666666666666664  1.1712962962962963 11.666666666666664  L 5.523726851851852 11.666666666666664  L 6.375578703703703 8.333333333333332  L 2.236111111111111 8.333333333333332  C 2.1030092592592595 8.333333333333332  1.9920910493827162 8.28125  1.9033564814814816 8.177083333333332  C 1.814621913580247 8.055555555555555  1.7880015432098768 7.934027777777777  1.8234953703703705 7.8125  L 2.5688657407407405 4.895833333333332  C 2.613233024691358 4.6875  2.750771604938272 4.583333333333332  2.9814814814814814 4.583333333333332  L 7.333912037037037 4.583333333333332  L 8.412037037037038 0.3125  C 8.474151234567902 0.1041666666666674  8.616126543209877 0  8.837962962962962 0  L 11.819444444444443 0  C 11.952546296296296 0  12.06346450617284 0.05208333333333259  12.152199074074074 0.15625  C 12.232060185185185 0.2604166666666674  12.258680555555557 0.3819444444444442  12.232060185185185 0.5208333333333326  L 11.19386574074074 4.583333333333332  L 14.574652777777779 4.583333333333332  L 15.652777777777779 0.3125  C 15.714891975308644 0.1041666666666674  15.856867283950619 0  16.078703703703702 0  L 19.060185185185187 0  C 19.193287037037035 0  19.304205246913583 0.05208333333333259  19.392939814814813 0.15625  C 19.472800925925924 0.2604166666666674  19.499421296296298 0.3819444444444442  19.472800925925924 0.5208333333333326  L 18.43460648148148 4.583333333333332  L 22.574074074074076 4.583333333333332  C 22.707175925925927 4.583333333333332  22.81809413580247 4.635416666666668  22.906828703703702 4.739583333333332  Z " fill-rule="nonzero" fill="#712ed1" stroke="none" transform="matrix(1 0 0 1 20 362 )" />
  </g>
</svg>