<?xml version="1.0" encoding="utf-8"?>
<svg version="1.1" xmlns:xlink="http://www.w3.org/1999/xlink" width="23px" height="20px" xmlns="http://www.w3.org/2000/svg">
  <g transform="matrix(1 0 0 1 -20 -310 )">
    <path d="M 22.087740384615383 4.573863636363635  C 22.69591346153846 5.198863636363635  23 5.9469696969696955  23 6.818181818181818  L 23 16.81818181818182  C 23 17.689393939393938  22.69591346153846 18.4375  22.087740384615383 19.0625  C 21.479567307692307 19.6875  20.751602564102566 20  19.903846153846153 20  L 3.096153846153846 20  C 2.248397435897436 20  1.5204326923076927 19.6875  0.9122596153846153 19.0625  C 0.30408653846153844 18.4375  0 17.689393939393938  0 16.81818181818182  L 0 3.181818181818181  C 0 2.3106060606060574  0.30408653846153844 1.5625  0.9122596153846153 0.9375  C 1.5204326923076927 0.3125  2.248397435897436 0  3.096153846153846 0  L 7.519230769230769 0  C 8.36698717948718 0  9.094951923076923 0.3125  9.703125 0.9375  C 10.311298076923077 1.5625  10.615384615384617 2.3106060606060574  10.615384615384617 3.181818181818181  L 10.615384615384617 3.6363636363636354  L 19.903846153846153 3.6363636363636354  C 20.751602564102566 3.6363636363636354  21.479567307692307 3.9488636363636354  22.087740384615383 4.573863636363635  Z " fill-rule="nonzero" fill="#712ed1" stroke="none" transform="matrix(1 0 0 1 20 310 )" />
  </g>
</svg>