<?xml version="1.0" encoding="utf-8"?>
<svg version="1.1" xmlns:xlink="http://www.w3.org/1999/xlink" width="22px" height="22px" xmlns="http://www.w3.org/2000/svg">
  <g transform="matrix(1 0 0 1 -21 -414 )">
    <path d="M 12.704427083333334 5.62890625  C 12.790364583333334 5.71484375  12.833333333333334 5.824652777777775  12.833333333333334 5.958333333333334  L 12.833333333333334 12.375  C 12.833333333333334 12.508680555555554  12.790364583333334 12.618489583333332  12.704427083333334 12.704427083333332  C 12.618489583333334 12.790364583333332  12.508680555555557 12.833333333333332  12.375 12.833333333333332  L 7.791666666666667 12.833333333333332  C 7.6579861111111125 12.833333333333332  7.548177083333333 12.790364583333332  7.462239583333333 12.704427083333332  C 7.376302083333333 12.618489583333332  7.333333333333333 12.508680555555554  7.333333333333333 12.375  L 7.333333333333333 11.458333333333332  C 7.333333333333333 11.324652777777777  7.376302083333333 11.21484375  7.462239583333333 11.12890625  C 7.548177083333333 11.04296875  7.6579861111111125 11  7.791666666666667 11  L 11 11  L 11 5.958333333333334  C 11 5.824652777777775  11.04296875 5.71484375  11.12890625 5.62890625  C 11.214843750000002 5.54296875  11.32465277777778 5.5  11.458333333333334 5.5  L 12.375 5.5  C 12.508680555555557 5.5  12.618489583333334 5.54296875  12.704427083333334 5.62890625  Z M 17.74609375 14.91015625  C 18.44314236111111 13.716579861111109  18.791666666666664 12.413194444444446  18.791666666666664 11  C 18.791666666666664 9.586805555555554  18.44314236111111 8.28342013888889  17.74609375 7.08984375  C 17.049045138888893 5.896267361111109  16.103732638888893 4.950954861111109  14.91015625 4.25390625  C 13.71657986111111 3.5568576388888884  12.413194444444446 3.208333333333334  11 3.208333333333334  C 9.586805555555555 3.208333333333334  8.28342013888889 3.5568576388888884  7.08984375 4.25390625  C 5.896267361111112 4.950954861111109  4.950954861111112 5.896267361111109  4.25390625 7.08984375  C 3.5568576388888893 8.28342013888889  3.2083333333333335 9.586805555555554  3.2083333333333335 11  C 3.2083333333333335 12.413194444444446  3.5568576388888893 13.716579861111109  4.25390625 14.91015625  C 4.950954861111112 16.103732638888886  5.896267361111112 17.04904513888889  7.08984375 17.74609375  C 8.28342013888889 18.44314236111111  9.586805555555555 18.791666666666664  11 18.791666666666664  C 12.413194444444446 18.791666666666664  13.71657986111111 18.44314236111111  14.91015625 17.74609375  C 16.103732638888893 17.04904513888889  17.049045138888893 16.103732638888886  17.74609375 14.91015625  Z M 20.524739583333336 5.478515625  C 21.508246527777775 7.163845486111109  22 9.004340277777775  22 11  C 22 12.995659722222223  21.508246527777775 14.836154513888886  20.524739583333336 16.521484375  C 19.541232638888893 18.20681423611111  18.20681423611111 19.54123263888889  16.521484375 20.524739583333336  C 14.836154513888891 21.50824652777778  12.995659722222223 22  11 22  C 9.004340277777779 22  7.163845486111112 21.50824652777778  5.478515625 20.524739583333336  C 3.7931857638888893 19.54123263888889  2.4587673611111116 18.20681423611111  1.4752604166666667 16.521484375  C 0.49175347222222215 14.836154513888886  0 12.995659722222223  0 11  C 0 9.004340277777775  0.49175347222222215 7.163845486111109  1.4752604166666667 5.478515625  C 2.4587673611111116 3.7931857638888884  3.7931857638888893 2.458767361111109  5.478515625 1.4752604166666659  C 7.163845486111112 0.4917534722222203  9.004340277777779 0  11 0  C 12.995659722222223 0  14.836154513888891 0.4917534722222203  16.521484375 1.4752604166666659  C 18.20681423611111 2.458767361111109  19.541232638888893 3.7931857638888884  20.524739583333336 5.478515625  Z " fill-rule="nonzero" fill="#712ed1" stroke="none" transform="matrix(1 0 0 1 21 414 )" />
  </g>
</svg>