<?xml version="1.0" encoding="utf-8"?>
<svg version="1.1" xmlns:xlink="http://www.w3.org/1999/xlink" width="37px" height="29px" xmlns="http://www.w3.org/2000/svg">
  <g transform="matrix(1 0 0 1 -293 -156 )">
    <path d="M 11.254166666666666 5.890625  C 11.973611111111111 6.595486111111109  12.333333333333332 7.451388888888885  12.333333333333332 8.458333333333332  C 12.333333333333332 9.465277777777777  11.973611111111111 10.321180555555555  11.254166666666666 11.026041666666668  C 10.534722222222223 11.73090277777778  9.661111111111111 12.083333333333332  8.633333333333333 12.083333333333332  C 7.605555555555556 12.083333333333332  6.731944444444445 11.73090277777778  6.0125 11.026041666666668  C 5.293055555555556 10.321180555555555  4.933333333333334 9.465277777777777  4.933333333333334 8.458333333333332  C 4.933333333333334 7.451388888888885  5.293055555555556 6.595486111111109  6.0125 5.890625  C 6.731944444444445 5.185763888888885  7.605555555555556 4.833333333333332  8.633333333333333 4.833333333333332  C 9.661111111111111 4.833333333333332  10.534722222222223 5.185763888888885  11.254166666666666 5.890625  Z M 24.05 7.854166666666668  L 32.06666666666667 15.708333333333336  L 32.06666666666667 24  L 4.933333333333334 24  L 4.933333333333334 20.541666666666664  L 11.1 14.5  L 14.183333333333334 17.520833333333336  L 24.05 7.854166666666668  Z M 34.350260416666664 2.596028645833332  C 34.22821180555556 2.4764539930555527  34.08368055555556 2.416666666666668  33.916666666666664 2.416666666666668  L 3.083333333333333 2.416666666666668  C 2.916319444444445 2.416666666666668  2.771788194444445 2.4764539930555527  2.649739583333333 2.596028645833332  C 2.5276909722222225 2.7156032986111085  2.466666666666667 2.8572048611111085  3 3.020833333333332  L 3 25.979166666666668  C 2.466666666666667 26.142795138888893  2.5276909722222225 26.284396701388893  2.649739583333333 26.403971354166668  C 2.771788194444445 26.523546006944443  2.916319444444445 26.583333333333332  3.083333333333333 26.583333333333332  L 33.916666666666664 26.583333333333332  C 34.08368055555556 26.583333333333332  34.22821180555556 26.523546006944443  34.350260416666664 26.403971354166668  C 34.472309027777776 26.284396701388893  34.53333333333333 26.142795138888893  34 25.979166666666668  L 34 3.020833333333332  C 34.53333333333333 2.8572048611111085  34.472309027777776 2.7156032986111085  34.350260416666664 2.596028645833332  Z M 36.09427083333333 0.8873697916666677  C 36.69809027777778 1.4789496527777763  37.00000000000001 2.190104166666668  37 3.020833333333332  L 37 25.979166666666668  C 37.00000000000001 26.809895833333332  36.69809027777778 27.521050347222225  36.09427083333333 28.112630208333332  C 35.49045138888889 28.704210069444443  34.764583333333334 29  33.916666666666664 29  L 3.083333333333333 29  C 2.2354166666666666 29  1.5095486111111114 28.704210069444443  0.9057291666666667 28.112630208333332  C 0.30190972222222223 27.521050347222225  0 26.809895833333332  0 25.979166666666668  L 0 3.020833333333332  C 0 2.190104166666668  0.30190972222222223 1.4789496527777763  0.9057291666666667 0.8873697916666677  C 1.5095486111111114 0.2957899305555527  2.2354166666666666 0  3.083333333333333 0  L 33.916666666666664 0  C 34.764583333333334 0  35.49045138888889 0.2957899305555527  36.09427083333333 0.8873697916666677  Z " fill-rule="nonzero" fill="#712ed1" stroke="none" transform="matrix(1 0 0 1 293 156 )" />
  </g>
</svg>