<?xml version="1.0" encoding="utf-8"?>
<svg version="1.1" xmlns:xlink="http://www.w3.org/1999/xlink" width="21px" height="27px" xmlns="http://www.w3.org/2000/svg">
  <g transform="matrix(1 0 0 1 -20 -258 )">
    <path d="M 5.833333333333334 13  L 19.25 13  C 19.736111111111114 13.5  20.14930555555556 13.664062499999998  20.489583333333332 13.992187500000002  C 20.829861111111114 14.3203125  21 14.718749999999998  21 15.1875  L 21 25.3125  C 21 25.78125  20.829861111111114 26.179687499999996  20.489583333333332 26.5078125  C 20.14930555555556 26.8359375  19.736111111111114 27  19.25 27  L 1.75 27  C 1.263888888888889 27  0.8506944444444445 26.8359375  0.5104166666666666 26.5078125  C 0.17013888888888887 26.179687499999996  0 25.78125  0 25.3125  L 0 15.1875  C 0 14.718749999999998  0.17013888888888887 14.3203125  0.5104166666666666 13.992187500000002  C 0.8506944444444445 13.664062499999998  1.263888888888889 13.5  1.75 13.5  L 2.333333333333333 13.5  L 2.333333333333333 7.874999999999999  C 2.333333333333333 5.707031249999997  3.1323784722222228 3.8525390624999964  4.73046875 2.311523437499999  C 6.328559027777779 0.7705078125000017  8.25173611111111 0  10.5 0  C 12.74826388888889 0  14.671440972222221 0.7705078125000017  16.26953125 2.311523437499999  C 17.86762152777778 3.8525390624999964  18.666666666666664 5.707031249999997  18.666666666666664 7.874999999999999  C 18.666666666666664 8.179687499999998  18.55121527777778 8.443359374999998  18.3203125 8.666015624999998  C 18.089409722222225 8.888671874999996  17.81597222222222 9.000000000000002  17.5 9.000000000000002  L 16.333333333333332 9.000000000000002  C 16.01736111111111 9.000000000000002  15.743923611111112 8.888671874999996  15.513020833333334 8.666015624999998  C 15.282118055555557 8.443359374999998  15.166666666666666 8.179687499999998  15.166666666666666 7.874999999999999  C 15.166666666666666 6.6328125  14.7109375 5.572265625000001  13.799479166666668 4.693359375  C 12.888020833333334 3.814453124999999  11.788194444444446 3.375  10.5 3.375  C 9.211805555555557 3.375  8.111979166666666 3.814453124999999  7.200520833333333 4.693359375  C 6.2890625 5.572265625000001  5.833333333333334 6.6328125  5.833333333333334 7.874999999999999  L 5.833333333333334 13  Z " fill-rule="nonzero" fill="#712ed1" stroke="none" transform="matrix(1 0 0 1 20 258 )" />
  </g>
</svg>