<?xml version="1.0" encoding="utf-8"?>
<svg version="1.1" xmlns:xlink="http://www.w3.org/1999/xlink" width="39px" height="31px" xmlns="http://www.w3.org/2000/svg">
  <g transform="matrix(1 0 0 1 -51 -155 )">
    <path d="M 11.862499999999999 6.296875  C 12.620833333333334 7.05034722222222  13 7.965277777777773  13 9.041666666666666  C 13 10.118055555555554  12.620833333333334 11.03298611111111  11.862499999999999 11.786458333333334  C 11.104166666666668 12.539930555555557  10.183333333333334 12.916666666666666  9.1 12.916666666666666  C 8.016666666666667 12.916666666666666  7.095833333333334 12.539930555555557  6.3375 11.786458333333334  C 5.5791666666666675 11.03298611111111  5.2 10.118055555555554  5.2 9.041666666666666  C 5.2 7.965277777777773  5.5791666666666675 7.05034722222222  6.3375 6.296875  C 7.095833333333334 5.543402777777773  8.016666666666667 5.166666666666665  9.1 5.166666666666665  C 10.183333333333334 5.166666666666665  11.104166666666668 5.543402777777773  11.862499999999999 6.296875  Z M 25.35 8.395833333333334  L 33.800000000000004 16.791666666666668  L 33.800000000000004 25.833333333333336  L 5.2 25.833333333333336  L 5.2 21.958333333333332  L 11.7 15.5  L 14.950000000000001 18.729166666666668  L 25.35 8.395833333333334  Z M 36.20703125 2.7750651041666656  C 36.07838541666667 2.647243923611108  35.92604166666667 2.5833333333333344  35.75 3  L 3.25 3  C 3.0739583333333336 2.5833333333333344  2.9216145833333336 2.647243923611108  2.79296875 2.7750651041666656  C 2.664322916666667 2.9028862847222197  2.6 3.0542534722222197  3 3.2291666666666656  L 3 27.770833333333336  C 2.6 27.945746527777782  2.664322916666667 28.097113715277782  2.79296875 28.224934895833336  C 2.9216145833333336 28.35275607638889  3.0739583333333336 28.416666666666664  3.25 28  L 35.75 28  C 35.92604166666667 28.416666666666664  36.07838541666667 28.35275607638889  36.20703125 28.224934895833336  C 36.33567708333334 28.097113715277782  36.4 27.945746527777782  36 27.770833333333336  L 36 3.2291666666666656  C 36.4 3.0542534722222197  36.33567708333334 2.9028862847222197  36.20703125 2.7750651041666656  Z M 38.0453125 0.9485677083333345  C 38.68177083333334 1.580946180555554  39.00000000000001 2.3411458333333344  39 3.2291666666666656  L 39 27.770833333333336  C 39.00000000000001 28.658854166666664  38.68177083333334 29.419053819444446  38.0453125 30.051432291666664  C 37.40885416666667 30.68381076388889  36.64375 31  35.75 31  L 3.25 31  C 2.35625 31  1.5911458333333337 30.68381076388889  0.9546875 30.051432291666664  C 0.3182291666666667 29.419053819444446  0 28.658854166666664  0 27.770833333333336  L 0 3.2291666666666656  C 0 2.3411458333333344  0.3182291666666667 1.580946180555554  0.9546875 0.9485677083333345  C 1.5911458333333337 0.31618923611110805  2.35625 0  3.25 0  L 35.75 0  C 36.64375 0  37.40885416666667 0.31618923611110805  38.0453125 0.9485677083333345  Z " fill-rule="nonzero" fill="#9254de" stroke="none" transform="matrix(1 0 0 1 51 155 )" />
  </g>
</svg>