<?xml version="1.0" encoding="utf-8"?>
<svg version="1.1" xmlns:xlink="http://www.w3.org/1999/xlink" width="18px" height="18px" xmlns="http://www.w3.org/2000/svg">
  <g transform="matrix(1 0 0 1 -171 -161 )">
    <path d="M 17.642045454545453 6.903409090909092  C 17.88068181818182 7.1420454545454515  18 7.431818181818182  18 7.772727272727272  L 18 10.227272727272727  C 18 10.568181818181818  17.88068181818182 10.857954545454545  17.642045454545453 11.096590909090908  C 17.403409090909093 11.335227272727272  17.113636363636363 11.454545454545455  16.772727272727273 11.454545454545455  L 11.454545454545455 11.454545454545455  L 11.454545454545455 16.772727272727273  C 11.454545454545455 17.113636363636363  11.335227272727273 17.40340909090909  11.096590909090908 17.642045454545453  C 10.857954545454549 17.88068181818182  10.568181818181818 18  10.227272727272728 18  L 7.7727272727272725 18  C 7.4318181818181825 18  7.142045454545456 17.88068181818182  6.903409090909092 17.642045454545453  C 6.6647727272727275 17.40340909090909  6.545454545454546 17.113636363636363  6.545454545454546 16.772727272727273  L 6.545454545454546 11.454545454545455  L 1.227272727272727 11.454545454545455  C 0.8863636363636365 11.454545454545455  0.5965909090909092 11.335227272727272  0.35795454545454547 11.096590909090908  C 0.11931818181818181 10.857954545454545  0 10.568181818181818  0 10.227272727272727  L 0 7.772727272727272  C 0 7.431818181818182  0.11931818181818181 7.1420454545454515  0.35795454545454547 6.903409090909092  C 0.5965909090909092 6.664772727272727  0.8863636363636365 6.545454545454546  1.227272727272727 6.545454545454546  L 6.545454545454546 6.545454545454546  L 6.545454545454546 1.2272727272727282  C 6.545454545454546 0.8863636363636356  6.6647727272727275 0.5965909090909081  6.903409090909092 0.35795454545454564  C 7.142045454545456 0.11931818181818121  7.4318181818181825 0  7.7727272727272725 0  L 10.227272727272728 0  C 10.568181818181818 0  10.857954545454549 0.11931818181818121  11.096590909090908 0.35795454545454564  C 11.335227272727273 0.5965909090909081  11.454545454545455 0.8863636363636356  11.454545454545455 1.2272727272727282  L 11.454545454545455 6.545454545454546  L 16.772727272727273 6.545454545454546  C 17.113636363636363 6.545454545454546  17.403409090909093 6.664772727272727  17.642045454545453 6.903409090909092  Z " fill-rule="nonzero" fill="#d7d7d7" stroke="none" transform="matrix(1 0 0 1 171 161 )" />
  </g>
</svg>