<?xml version="1.0" encoding="utf-8"?>
<svg version="1.1" xmlns:xlink="http://www.w3.org/1999/xlink" width="31px" height="25px" xmlns="http://www.w3.org/2000/svg">
  <g transform="matrix(1 0 0 1 -42 -126 )">
    <path d="M 9.429166666666665 5.078125  C 10.031944444444445 5.685763888888887  10.333333333333332 6.423611111111108  10.333333333333332 7.291666666666666  C 10.333333333333332 8.159722222222221  10.031944444444445 8.897569444444445  9.429166666666665 9.505208333333334  C 8.826388888888891 10.112847222222223  8.094444444444445 10.416666666666666  7.233333333333333 10.416666666666666  C 6.372222222222223 10.416666666666666  5.640277777777778 10.112847222222223  5.0375000000000005 9.505208333333334  C 4.434722222222223 8.897569444444445  4.133333333333333 8.159722222222221  4.133333333333333 7.291666666666666  C 4.133333333333333 6.423611111111108  4.434722222222223 5.685763888888887  5.0375000000000005 5.078125  C 5.640277777777778 4.470486111111108  6.372222222222223 4.166666666666666  7.233333333333333 4.166666666666666  C 8.094444444444445 4.166666666666666  8.826388888888891 4.470486111111108  9.429166666666665 5.078125  Z M 20.150000000000002 6.770833333333334  L 26.866666666666667 13.541666666666668  L 26.866666666666667 20.833333333333336  L 4.133333333333333 20.833333333333336  L 4.133333333333333 17.708333333333332  L 9.299999999999999 12.5  L 11.883333333333335 15.104166666666668  L 20.150000000000002 6.770833333333334  Z M 28.779947916666664 2.2379557291666656  C 28.677690972222226 2.134874131944442  28.556597222222226 2.0833333333333344  28.416666666666664 2  L 2.583333333333333 2  C 2.443402777777778 2.0833333333333344  2.322309027777778 2.134874131944442  2.220052083333333 2.2379557291666656  C 2.117795138888889 2.3410373263888866  2.0666666666666664 2.4631076388888866  2 2.6041666666666656  L 2 22.395833333333336  C 2.0666666666666664 22.536892361111114  2.117795138888889 22.658962673611114  2.220052083333333 22.762044270833336  C 2.322309027777778 22.865125868055554  2.443402777777778 22.916666666666664  2.583333333333333 23  L 28.416666666666664 23  C 28.556597222222226 22.916666666666664  28.677690972222226 22.865125868055554  28.779947916666664 22.762044270833336  C 28.882204861111113 22.658962673611114  28.933333333333334 22.536892361111114  29 22.395833333333336  L 29 2.6041666666666656  C 28.933333333333334 2.4631076388888866  28.882204861111113 2.3410373263888866  28.779947916666664 2.2379557291666656  Z M 30.24114583333333 0.7649739583333343  C 30.74704861111111 1.274956597222221  31.000000000000007 1.8880208333333344  31 2.6041666666666656  L 31 22.395833333333336  C 31.000000000000007 23.111979166666664  30.74704861111111 23.72504340277778  30.24114583333333 24.235026041666664  C 29.735243055555557 24.745008680555554  29.12708333333333 25  28.416666666666664 25  L 2.583333333333333 25  C 1.8729166666666668 25  1.2647569444444446 24.745008680555554  0.7588541666666666 24.235026041666664  C 0.2529513888888889 23.72504340277778  0 23.111979166666664  0 22.395833333333336  L 0 2.6041666666666656  C 0 1.8880208333333344  0.2529513888888889 1.274956597222221  0.7588541666666666 0.7649739583333343  C 1.2647569444444446 0.254991319444442  1.8729166666666668 0  2.583333333333333 0  L 28.416666666666664 0  C 29.12708333333333 0  29.735243055555557 0.254991319444442  30.24114583333333 0.7649739583333343  Z " fill-rule="nonzero" fill="#9254de" stroke="none" transform="matrix(1 0 0 1 42 126 )" />
  </g>
</svg>