<?xml version="1.0" encoding="utf-8"?>
<svg version="1.1" xmlns:xlink="http://www.w3.org/1999/xlink" width="70px" height="70px" xmlns="http://www.w3.org/2000/svg">
  <g transform="matrix(1 0 0 1 -160 -735 )">
    <path d="M 195 739  C 212.36 739  226 752.64  226 770  C 226 787.36  212.36 801  195 801  C 177.64 801  164 787.36  164 770  C 164 752.64  177.64 739  195 739  Z " fill-rule="nonzero" fill="#ffffff" stroke="none" fill-opacity="0" />
    <path d="M 195 737.5  C 213.2 737.5  227.5 751.8  227.5 770  C 227.5 788.2  213.2 802.5  195 802.5  C 176.8 802.5  162.5 788.2  162.5 770  C 162.5 751.8  176.8 737.5  195 737.5  Z " stroke-width="5" stroke="#797979" fill="none" />
  </g>
</svg>