<?xml version="1.0" encoding="utf-8"?>
<svg version="1.1" xmlns:xlink="http://www.w3.org/1999/xlink" width="31px" height="33px" xmlns="http://www.w3.org/2000/svg">
  <g transform="matrix(1 0 0 1 -338 -223 )">
    <path d="M 11.074573863636363 12.568359375  C 11.206676136363637 12.697265625  11.272727272727273 12.861979166666666  11.272727272727273 13.062500000000002  L 11.272727272727273 25.4375  C 11.272727272727273 25.638020833333332  11.206676136363637 25.802734375  11.074573863636363 25.931640625  C 10.94247159090909 26.060546875  10.773674242424244 26.125  10.568181818181817 26.125  L 9.15909090909091 26.125  C 8.953598484848486 26.125  8.784801136363638 26.060546875  8.652698863636363 25.931640625  C 8.52059659090909 25.802734375  8.454545454545453 25.638020833333332  9 25.4375  L 9 13.062500000000002  C 8.454545454545453 12.861979166666666  8.52059659090909 12.697265625  8.652698863636363 12.568359375  C 8.784801136363638 12.439453125  8.953598484848486 12.375  9.15909090909091 12.375  L 10.568181818181817 12.375  C 10.773674242424244 12.375  10.94247159090909 12.439453125  11.074573863636363 12.568359375  Z M 16.7109375 12.568359375  C 16.843039772727273 12.697265625  16.909090909090907 12.861979166666666  17 13.062500000000002  L 17 25.4375  C 16.909090909090907 25.638020833333332  16.843039772727273 25.802734375  16.7109375 25.931640625  C 16.578835227272727 26.060546875  16.41003787878788 26.125  16.204545454545453 26.125  L 14.795454545454547 26.125  C 14.589962121212123 26.125  14.421164772727273 26.060546875  14.2890625 25.931640625  C 14.156960227272727 25.802734375  14.09090909090909 25.638020833333332  14 25.4375  L 14 13.062500000000002  C 14.09090909090909 12.861979166666666  14.156960227272727 12.697265625  14.2890625 12.568359375  C 14.421164772727273 12.439453125  14.589962121212123 12.375  14.795454545454547 12.375  L 16.204545454545453 12.375  C 16.41003787878788 12.375  16.578835227272727 12.439453125  16.7109375 12.568359375  Z M 22.347301136363633 12.568359375  C 22.479403409090907 12.697265625  22.545454545454547 12.861979166666666  22 13.062500000000002  L 22 25.4375  C 22.545454545454547 25.638020833333332  22.479403409090907 25.802734375  22.347301136363633 25.931640625  C 22.215198863636367 26.060546875  22.046401515151516 26.125  21.840909090909093 26.125  L 20.43181818181818 26.125  C 20.226325757575758 26.125  20.057528409090907 26.060546875  19.925426136363633 25.931640625  C 19.793323863636367 25.802734375  19.727272727272727 25.638020833333332  19.727272727272727 25.4375  L 19.727272727272727 13.062500000000002  C 19.727272727272727 12.861979166666666  19.793323863636367 12.697265625  19.925426136363633 12.568359375  C 20.057528409090907 12.439453125  20.226325757575758 12.375  20.43181818181818 12.375  L 21.840909090909093 12.375  C 22.046401515151516 12.375  22.215198863636367 12.439453125  22.347301136363633 12.568359375  Z M 25.209517045454547 29.4873046875  C 25.312263257575758 29.222330729166668  25.363636363636367 28.932291666666668  25 28.6171875  L 25 8.25  L 6 8.25  L 6 28.6171875  C 5.636363636363637 28.932291666666668  5.687736742424243 29.222330729166668  5.790482954545455 29.4873046875  C 5.893229166666667 29.752278645833332  5.999644886363637 29.945638020833332  6.109730113636363 30.0673828125  C 6.219815340909092 30.189127604166668  6.296875 30.25  6.340909090909092 30  L 24.659090909090907 30  C 24.703125 30.25  24.780184659090907 30.189127604166668  24.890269886363633 30.0673828125  C 25.000355113636367 29.945638020833332  25.10677083333334 29.752278645833332  25.209517045454547 29.4873046875  Z M 11.647017045454547 2.9863281249999987  L 10.568181818181817 5.499999999999999  L 20.43181818181818 5.499999999999999  L 19.375 2.9863281249999987  C 19.272253787878793 2.8574218749999987  19.14749053030303 2.7786458333333317  19.000710227272727 2.7500000000000013  L 12.021306818181817 2.7500000000000013  C 11.874526515151516 2.7786458333333317  11.74976325757576 2.8574218749999987  11.647017045454547 2.9863281249999987  Z M 30.801846590909093 5.693359374999999  C 30.933948863636367 5.822265624999999  31 5.986979166666664  31 6.1875  L 31 7.562499999999999  C 31 7.76302083333333  30.933948863636367 7.927734375  30.801846590909093 8.056640625  C 30.66974431818182 8.185546875  30.500946969696972 8.25  30.295454545454547 8.25  L 28 8.25  L 28 28.6171875  C 28.18181818181818 29.805989583333332  27.836884469696972 30.833658854166668  27.147017045454547 31.7001953125  C 26.457149621212125 32.566731770833336  25.627840909090907 33  24.659090909090907 33  L 6.340909090909092 33  C 5.372159090909092 33  4.54285037878788 32.5810546875  3.852982954545454 31.7431640625  C 3.1631155303030307 30.9052734375  2.8181818181818183 29.891927083333332  3 28.703125  L 3 8.25  L 0.7045454545454546 8.25  C 0.4990530303030303 8.25  0.3302556818181818 8.185546875  0.19815340909090912 8.056640625  C 0.06605113636363635 7.927734375  0 7.76302083333333  0 7.562499999999999  L 0 6.1875  C 0 5.986979166666664  0.06605113636363635 5.822265624999999  0.19815340909090912 5.693359374999999  C 0.3302556818181818 5.564453124999999  0.4990530303030303 5.499999999999999  0.7045454545454546 5.499999999999999  L 7.5078125 5.499999999999999  L 9.049005681818183 1.9121093750000013  C 9.269176136363638 1.3821614583333304  9.665482954545455 0.9309895833333305  10.237926136363637 0.5585937500000012  C 10.810369318181818 0.18619791666666463  11.390151515151516 0  11.977272727272727 0  L 19.022727272727273 0  C 19.609848484848488 0  20.18963068181818 0.18619791666666463  20.762073863636367 0.5585937500000012  C 21.334517045454547 0.9309895833333305  21.730823863636367 1.3821614583333304  21.95099431818182 1.9121093750000013  L 23.4921875 5.499999999999999  L 30.295454545454547 5.499999999999999  C 30.500946969696972 5.499999999999999  30.66974431818182 5.564453124999999  30.801846590909093 5.693359374999999  Z " fill-rule="nonzero" fill="#712ed1" stroke="none" transform="matrix(1 0 0 1 338 223 )" />
  </g>
</svg>