<?xml version="1.0" encoding="utf-8"?>
<svg version="1.1" xmlns:xlink="http://www.w3.org/1999/xlink" width="33px" height="36px" xmlns="http://www.w3.org/2000/svg">
  <g transform="matrix(1 0 0 1 -54 -152 )">
    <path d="M 32.3984375 0.6057692307692326  C 32.799479166666664 1.009615384615381  33 1.4999999999999987  33 2.0769230769230775  L 33 26.30769230769231  C 33 27.02884615384615  32.756510416666664 27.670673076923077  32.26953125 28.233173076923077  C 31.782552083333336 28.795673076923077  31.166666666666668 29.231971153846157  30.421875 29.54206730769231  C 29.67708333333334 29.85216346153846  28.93587239583334 30.08293269230769  28.1982421875 30.234375  C 27.460611979166668 30.38581730769231  26.76953125 30.46153846153846  26.125 30.46153846153846  C 25.48046875 30.46153846153846  24.789388020833336 30.38581730769231  24.0517578125 30.234375  C 23.314127604166668 30.08293269230769  22.572916666666668 29.85216346153846  21.828125 29.54206730769231  C 21.083333333333336 29.231971153846157  20.467447916666668 28.795673076923077  19.98046875 28.233173076923077  C 19.493489583333336 27.670673076923077  19.25 27.02884615384615  19.25 26.30769230769231  C 19.25 25.586538461538463  19.493489583333336 24.94471153846154  19.98046875 24.38221153846154  C 20.467447916666668 23.81971153846154  21.083333333333336 23.38341346153846  21.828125 23.07331730769231  C 22.572916666666668 22.763221153846153  23.314127604166668 22.532451923076923  24.0517578125 22.381009615384617  C 24.789388020833336 22.22956730769231  25.48046875 22.153846153846153  26.125 22.153846153846153  C 27.62890625 22.153846153846153  29.00390625 22.435096153846153  30 22.997596153846153  L 30 11.379807692307693  L 14 16.50721153846154  L 14 31.846153846153847  C 13.75 32.56730769230769  13.506510416666668 33.20913461538461  13.01953125 33.77163461538461  C 12.532552083333334 34.33413461538461  11.916666666666668 34.77043269230769  11.171875 35.08052884615385  C 10.427083333333334 35.390625  9.685872395833334 35.62139423076923  8.9482421875 35.77283653846154  C 8.210611979166668 35.92427884615385  7.51953125 36  6.875 36  C 6.23046875 36  5.539388020833334 35.92427884615385  4.8017578125 35.77283653846154  C 4.064127604166667 35.62139423076923  3.3229166666666674 35.390625  2.578125 35.08052884615385  C 1.8333333333333335 34.77043269230769  1.2174479166666667 34.33413461538461  0.73046875 33.77163461538461  C 0.2434895833333333 33.20913461538461  0 32.56730769230769  0 31.846153846153847  C 0 31.125  0.2434895833333333 30.483173076923077  0.73046875 29.920673076923077  C 1.2174479166666667 29.358173076923077  1.8333333333333335 28.921875  2.578125 28.611778846153847  C 3.3229166666666674 28.301682692307693  4.064127604166667 28.07091346153846  4.8017578125 27.919471153846153  C 5.539388020833334 27.768028846153847  6.23046875 27.69230769230769  6.875 27.69230769230769  C 8.37890625 27.69230769230769  9.75390625 27.97355769230769  11 28.53605769230769  L 11 7.615384615384617  C 11 7.168269230769227  11.136067708333334 6.760817307692307  11.408203125 6.393028846153845  C 11.68033854166667 6.025240384615383  12.03125 5.769230769230765  12.4609375 5.625  L 30.3359375 0.08653846153846123  C 30.5078125 0.028846153846153744  30.70833333333334 0  30.9375 0  C 31.510416666666668 0  31.99739583333334 0.2019230769230762  32.3984375 0.6057692307692326  Z " fill-rule="nonzero" fill="#712ed1" stroke="none" transform="matrix(1 0 0 1 54 152 )" />
  </g>
</svg>