<?xml version="1.0" encoding="utf-8"?>
<svg version="1.1" xmlns:xlink="http://www.w3.org/1999/xlink" width="20px" height="20px" xmlns="http://www.w3.org/2000/svg">
  <g transform="matrix(1 0 0 1 -35 -121 )">
    <path d="M 12.265625 12.265625  C 13.319310897435898 11.211939102564102  13.846153846153847 9.943910256410255  13.846153846153847 8.461538461538463  C 13.846153846153847 6.979166666666665  13.319310897435898 5.711137820512819  12.265625 4.657451923076923  C 11.211939102564104 3.603766025641024  9.943910256410257 3.076923076923077  8.461538461538462 3.076923076923077  C 6.979166666666668 3.076923076923077  5.711137820512821 3.603766025641024  4.657451923076923 4.657451923076923  C 3.603766025641026 5.711137820512819  3.076923076923077 6.979166666666665  3.076923076923077 8.461538461538463  C 3.076923076923077 9.943910256410255  3.603766025641026 11.211939102564102  4.657451923076923 12.265625  C 5.711137820512821 13.319310897435894  6.979166666666668 13.846153846153847  8.461538461538462 13.846153846153847  C 9.943910256410257 13.846153846153847  11.211939102564104 13.319310897435894  12.265625 12.265625  Z M 19.555288461538463 17.379807692307693  C 19.85176282051282 17.67628205128205  20 18.036858974358974  20 18.461538461538463  C 20 18.87820512820513  19.847756410256412 19.23878205128205  19.54326923076923 19.54326923076923  C 19.23878205128205 19.84775641025641  18.87820512820513 20  18.461538461538463 20  C 18.028846153846153 20  17.66826923076923 19.84775641025641  17.379807692307693 19.54326923076923  L 13.257211538461537 15.432692307692308  C 11.822916666666668 16.42628205128205  10.224358974358976 16.923076923076923  8.461538461538462 16.923076923076923  C 7.315705128205129 16.923076923076923  6.219951923076923 16.700721153846153  5.174278846153846 16.256009615384617  C 4.128605769230769 15.811298076923077  3.2271634615384617 15.210336538461537  2.4699519230769234 14.453125  C 1.7127403846153846 13.695913461538463  1.1117788461538463 12.794471153846153  0.6670673076923077 11.748798076923077  C 0.22235576923076925 10.703125  0 9.607371794871792  0 8.461538461538463  C 0 7.315705128205126  0.22235576923076925 6.219951923076923  0.6670673076923077 5.174278846153846  C 1.1117788461538463 4.128605769230768  1.7127403846153846 3.2271634615384626  2.4699519230769234 2.469951923076923  C 3.2271634615384617 1.7127403846153855  4.128605769230769 1.1117788461538458  5.174278846153846 0.6670673076923084  C 6.219951923076923 0.22235576923076872  7.315705128205129 0  8.461538461538462 0  C 9.607371794871796 0  10.703125 0.22235576923076872  11.748798076923077 0.6670673076923084  C 12.794471153846153 1.1117788461538458  13.695913461538463 1.7127403846153855  14.453125 2.469951923076923  C 15.210336538461537 3.2271634615384626  15.811298076923077 4.128605769230768  16.256009615384613 5.174278846153846  C 16.700721153846153 6.219951923076923  16.923076923076923 7.315705128205126  16.923076923076923 8.461538461538463  C 16.923076923076923 10.224358974358974  16.42628205128205 11.822916666666664  15.432692307692308 13.257211538461537  L 19.555288461538463 17.379807692307693  Z " fill-rule="nonzero" fill="#7f7f7f" stroke="none" transform="matrix(1 0 0 1 35 121 )" />
  </g>
</svg>