<?xml version="1.0" encoding="utf-8"?>
<svg version="1.1" xmlns:xlink="http://www.w3.org/1999/xlink" width="43px" height="50px" xmlns="http://www.w3.org/2000/svg">
  <g transform="matrix(1 0 0 1 -49 -386 )">
    <path d="M 32.361979166666664 1.8973214285714302  L 41.096354166666664 10.60267857142857  C 41.618923611111114 11.123511904761902  42.06684027777778 11.830357142857146  42.440104166666664 12.723214285714285  C 42.81336805555556 13.61607142857143  43 14.434523809523808  43 15.17857142857143  L 43 47.32142857142857  C 43 48.06547619047619  42.73871527777778 48.697916666666664  42.216145833333336 49.21875  C 41.69357638888889 49.739583333333336  41.05902777777778 50  40.3125 50  L 2.6875 50  C 1.9409722222222225 50  1.3064236111111112 49.739583333333336  0.7838541666666667 49.21875  C 0.2612847222222222 48.697916666666664  0 48.06547619047619  0 47.32142857142857  L 0 2.67857142857143  C 0 1.9345238095238082  0.2612847222222222 1.3020833333333315  0.7838541666666667 0.78125  C 1.3064236111111112 0.2604166666666685  1.9409722222222225 0  2.6875 0  L 27.770833333333336 0  C 28.517361111111114 0  29.338541666666664 0.18601190476190688  30.234375 0.5580357142857151  C 31.130208333333336 0.9300595238095233  31.839409722222225 1.3764880952380931  32.361979166666664 1.8973214285714302  Z M 29.814453125 4.408482142857145  C 29.590494791666664 4.185267857142855  29.20789930555556 3.980654761904756  28 3.794642857142855  L 28 15  L 39.192708333333336 15  C 39.00607638888889 13.746279761904756  38.80078125 13.364955357142854  38.576822916666664 13.14174107142857  L 29.814453125 4.408482142857145  Z M 4 46  L 39 46  L 39 18  L 27.770833333333336 18  C 27.024305555555554 17.857142857142854  26.389756944444446 17.596726190476186  25.8671875 17.075892857142854  C 25.344618055555554 16.555059523809522  25.083333333333336 15.92261904761904  25 15.17857142857143  L 25 4  L 4 4  L 4 46  Z M 20.940104166666668 23.2421875  C 21.966579861111114 26.292782738095234  23.328993055555554 28.506324404761905  25.02734375 29.8828125  C 25.64322916666667 30.366443452380953  26.427083333333336 30.887276785714285  27.37890625 31.4453125  C 28.480034722222225 31.315104166666664  29.571831597222225 31.25  30.654296875 31.25  C 33.397786458333336 31.25  35.049479166666664 31.705729166666664  35.609375 32.6171875  C 35.907986111111114 33.02641369047619  35.92664930555556 33.51004464285714  35.665364583333336 34.06808035714286  C 35.665364583333336 34.086681547619044  35.656032986111114 34.105282738095234  35.637369791666664 34.12388392857143  L 35.581380208333336 34.1796875  L 35.581380208333336 34.207589285714285  C 35.469401041666664 34.914434523809526  34.80685763888889 35.26785714285714  33.59375 35.26785714285714  C 32.697916666666664 35.26785714285714  31.624782986111114 35.081845238095234  30.374348958333336 34.70982142857143  C 29.12391493055556 34.33779761904761  27.910807291666664 33.84486607142857  26.735026041666664 33.231026785714285  C 22.610460069444446 33.67745535714286  18.952473958333332 34.44940476190476  15.761067708333332 35.546875  C 12.905598958333332 40.420386904761905  10.647352430555555 42.85714285714286  8.986328125 42.85714285714286  C 8.706380208333334 42.85714285714286  8.44509548611111 42.79203869047619  8.202473958333334 42.66183035714286  L 7.530598958333334 42.32700892857143  C 7.51193576388889 42.308407738095234  7.455946180555556 42.261904761904766  7.362630208333334 42.1875  C 7.17599826388889 42.001488095238095  7.120008680555556 41.666666666666664  7.194661458333334 41.183035714285715  C 7.362630208333334 40.438988095238095  7.885199652777779 39.58798363095238  8.762369791666666 38.63002232142857  C 9.639539930555555 37.672061011904766  10.87131076388889 36.77455357142857  12.457682291666668 35.9375  C 12.71896701388889 35.770089285714285  12.933593750000002 35.82589285714286  13.1015625 36.104910714285715  C 13.13888888888889 36.142113095238095  13.157552083333332 36.179315476190474  13.157552083333332 36.21651785714286  C 14.128038194444448 34.635416666666664  15.126519097222223 32.8031994047619  16.152994791666668 30.71986607142857  C 17.42209201388889 28.190104166666664  18.392578125 25.753348214285715  19.064453125 23.409598214285715  C 18.616536458333332 21.884300595238095  18.331922743055557 20.4008556547619  18.210611979166668 18.959263392857146  C 18.08930121527778 17.51767113095238  18.14995659722222 16.331845238095237  18.392578125 15.401785714285715  C 18.59787326388889 14.657738095238093  18.98980034722222 14.285714285714285  19.568359375 14.285714285714285  L 20.15625 14.285714285714285  L 20.184244791666668 14.285714285714285  C 20.61349826388889 14.285714285714285  20.940104166666668 14.425223214285715  21.1640625 14.70424107142857  C 21.500000000000004 15.09486607142857  21.583984375000004 15.72730654761904  21.416015625 16.6015625  C 21.37868923611111 16.713169642857146  21.34136284722222 16.7875744047619  21.304036458333332 16.824776785714285  C 21.32269965277778 16.880580357142854  21.33203125 16.954985119047617  21.33203125 17.04799107142857  L 21.33203125 17.885044642857146  C 21.29470486111111 20.17299107142857  21.1640625 21.958705357142854  20.940104166666668 23.2421875  Z M 10.2880859375 39.285714285714285  C 9.606879340277779 40.104166666666664  9.144965277777779 40.792410714285715  8.90234375 41.35044642857143  C 9.87282986111111 40.90401785714286  11.151258680555557 39.43452380952381  12.737630208333332 36.941964285714285  C 11.785807291666668 37.686011904761905  10.969292534722223 38.467261904761905  10.2880859375 39.285714285714285  Z M 20.044270833333332 15.625  L 20.044270833333332 15.68080357142857  C 19.764322916666668 16.46205357142857  19.74565972222222 17.689732142857146  19.98828125 19.363839285714285  C 20.006944444444446 19.23363095238095  20.072265625 18.824404761904756  20.184244791666668 18.136160714285715  C 20.184244791666668 18.080357142857146  20.24956597222222 17.68043154761904  20.380208333333332 16.93638392857143  C 20.39887152777778 16.861979166666664  20.436197916666668 16.7875744047619  20.4921875 16.713169642857146  C 20.473524305555557 16.69456845238095  20.464192708333332 16.675967261904756  20.464192708333332 16.65736607142857  C 20.44552951388889 16.620163690476186  20.436197916666668 16.5922619047619  20.436197916666668 16.573660714285715  C 20.41753472222222 16.164434523809522  20.296223958333332 15.829613095238093  20.072265625 15.56919642857143  C 20.072265625 15.587797619047617  20.06293402777778 15.606398809523808  20.044270833333332 15.625  Z M 17.832682291666668 31.808035714285715  C 17.272786458333332 32.84970238095238  16.852864583333332 33.621651785714285  16.572916666666668 34.12388392857143  C 19.092447916666668 33.11941964285714  21.74262152777778 32.36607142857143  24.5234375 31.863839285714285  C 24.486111111111114 31.845238095238095  24.364800347222225 31.756882440476186  24.159505208333336 31.59877232142857  C 23.954210069444446 31.440662202380953  23.804904513888896 31.315104166666664  23.711588541666664 31.222098214285715  C 22.293185763888896 29.975818452380953  21.10807291666667 28.338913690476186  20.15625 26.31138392857143  C 19.65234375 27.911086309523807  18.877821180555557 29.74330357142857  17.832682291666668 31.808035714285715  Z M 34.713541666666664 33.761160714285715  C 34.713541666666664 33.742559523809526  34.69487847222222 33.714657738095234  34.657552083333336 33.67745535714286  C 34.209635416666664 33.231026785714285  32.90321180555556 33.0078125  30.73828125 33.0078125  C 32.15668402777778 33.52864583333333  33.313802083333336 33.7890625  34.209635416666664 33.7890625  C 34.47092013888889 33.7890625  34.63888888888889 33.7797619047619  34.713541666666664 33.761160714285715  Z " fill-rule="nonzero" fill="#000000" stroke="none" transform="matrix(1 0 0 1 49 386 )" />
  </g>
</svg>