<?xml version="1.0" encoding="utf-8"?>
<svg version="1.1" xmlns:xlink="http://www.w3.org/1999/xlink" width="43px" height="50px" xmlns="http://www.w3.org/2000/svg">
  <g transform="matrix(1 0 0 1 -49 -577 )">
    <path d="M 32.361979166666664 1.8973214285714302  L 41.096354166666664 10.60267857142857  C 41.618923611111114 11.123511904761902  42.06684027777778 11.830357142857146  42.440104166666664 12.723214285714285  C 42.81336805555556 13.61607142857143  43 14.434523809523808  43 15.17857142857143  L 43 47.32142857142857  C 43 48.06547619047619  42.73871527777778 48.697916666666664  42.216145833333336 49.21875  C 41.69357638888889 49.739583333333336  41.05902777777778 50  40.3125 50  L 2.6875 50  C 1.9409722222222225 50  1.3064236111111112 49.739583333333336  0.7838541666666667 49.21875  C 0.2612847222222222 48.697916666666664  0 48.06547619047619  0 47.32142857142857  L 0 2.67857142857143  C 0 1.9345238095238082  0.2612847222222222 1.3020833333333315  0.7838541666666667 0.78125  C 1.3064236111111112 0.2604166666666685  1.9409722222222225 0  2.6875 0  L 27.770833333333336 0  C 28.517361111111114 0  29.338541666666664 0.18601190476190688  30.234375 0.5580357142857151  C 31.130208333333336 0.9300595238095233  31.839409722222225 1.3764880952380931  32.361979166666664 1.8973214285714302  Z M 29.814453125 4.408482142857145  C 29.590494791666664 4.185267857142855  29.20789930555556 3.980654761904756  28 3.794642857142855  L 28 15  L 39.192708333333336 15  C 39.00607638888889 13.746279761904756  38.80078125 13.364955357142854  38.576822916666664 13.14174107142857  L 29.814453125 4.408482142857145  Z M 4 46  L 39 46  L 39 18  L 27.770833333333336 18  C 27.024305555555554 17.857142857142854  26.389756944444446 17.596726190476186  25.8671875 17.075892857142854  C 25.344618055555554 16.555059523809522  25.083333333333336 15.92261904761904  25 15.17857142857143  L 25 4  L 4 4  L 4 46  Z M 16.376953125 23.911830357142854  C 16.67556423611111 23.6328125  17.00217013888889 23.567708333333332  17.356770833333332 23.716517857142854  C 17.73003472222222 23.86532738095238  17.916666666666668 24.144345238095237  18 24.55357142857143  L 18 39.73214285714286  C 17.916666666666668 40.141369047619044  17.73003472222222 40.420386904761905  17.356770833333332 40.56919642857143  C 17.20746527777778 40.60639880952381  17.09548611111111 40.625  17.020833333333332 40.625  C 16.796875 40.625  16.58224826388889 40.54129464285714  16.376953125 40.37388392857143  L 11.729817708333332 35.714285714285715  L 8.0625 35.714285714285715  C 7.801215277777779 35.714285714285715  7.586588541666666 35.63058035714286  7.418619791666666 35.46316964285714  C 7.250651041666666 35.29575892857143  7.166666666666666 35.081845238095234  7.166666666666666 34.82142857142857  L 7.166666666666666 29.464285714285715  C 7.166666666666666 29.203869047619047  7.250651041666666 28.98995535714286  7.418619791666666 28.82254464285714  C 7.586588541666666 28.65513392857143  7.801215277777779 28.57142857142857  8.0625 28.57142857142857  L 11.729817708333332 28.57142857142857  L 16.376953125 23.911830357142854  Z M 27.910807291666664 42.52232142857143  C 28.246744791666664 42.801339285714285  28.620008680555554 42.940848214285715  29.030598958333336 42.940848214285715  C 29.609157986111114 42.940848214285715  30.075737847222225 42.71763392857143  30.430338541666664 42.27120535714286  C 32.837890625 39.31361607142857  34.041666666666664 35.9375  34.041666666666664 32.14285714285714  C 34.041666666666664 28.348214285714285  32.837890625 24.972098214285715  30.430338541666664 22.01450892857143  C 30.13172743055556 21.62388392857143  29.73046875 21.400669642857146  29.2265625 21.34486607142857  C 28.72265625 21.2890625  28.28407118055556 21.419270833333332  27.910807291666664 21.73549107142857  C 27.518880208333336 22.051711309523807  27.299587673611114 22.45628720238095  27.2529296875 22.94921875  C 27.20627170138889 23.442150297619047  27.341579861111114 23.88392857142857  27.658854166666664 24.27455357142857  C 29.525173611111114 26.5625  30.458333333333336 29.18526785714286  30.458333333333336 32.14285714285714  C 30.458333333333336 35.10044642857143  29.525173611111114 37.723214285714285  27.658854166666664 40.011160714285715  C 27.341579861111114 40.401785714285715  27.20627170138889 40.843563988095234  27.2529296875 41.336495535714285  C 27.299587673611114 41.829427083333336  27.518880208333336 42.22470238095238  27.910807291666664 42.52232142857143  Z M 21.891927083333336 38.33705357142857  C 22.265190972222225 38.65327380952381  22.67578125 38.81138392857143  23.123697916666664 38.81138392857143  C 23.627604166666664 38.81138392857143  24.066189236111114 38.625372023809526  24.439453125 38.253348214285715  C 26.06315104166667 36.5234375  26.875000000000004 34.48660714285714  26.875 32.14285714285714  C 26.875000000000004 29.79910714285714  26.06315104166667 27.762276785714285  24.439453125 26.03236607142857  C 24.103515625000004 25.678943452380953  23.683593750000004 25.492931547619047  23.1796875 25.47433035714286  C 22.675781250000004 25.455729166666664  22.24652777777778 25.613839285714285  21.891927083333336 25.948660714285715  C 21.53732638888889 26.28348214285714  21.350694444444446 26.69735863095238  21.33203125 27.19029017857143  C 21.313368055555557 27.683221726190478  21.481336805555557 28.115699404761905  21.8359375 28.487723214285715  C 22.806423611111114 29.54799107142857  23.291666666666664 30.766369047619047  23.291666666666664 32.14285714285714  C 23.291666666666664 33.519345238095234  22.806423611111114 34.737723214285715  21.8359375 35.79799107142857  C 21.481336805555557 36.17001488095238  21.313368055555557 36.60249255952381  21.33203125 37.09542410714286  C 21.350694444444446 37.588355654761905  21.53732638888889 38.00223214285714  21.891927083333336 38.33705357142857  Z " fill-rule="nonzero" fill="#000000" stroke="none" transform="matrix(1 0 0 1 49 577 )" />
  </g>
</svg>