<?xml version="1.0" encoding="utf-8"?>
<svg version="1.1" xmlns:xlink="http://www.w3.org/1999/xlink" width="43px" height="50px" xmlns="http://www.w3.org/2000/svg">
  <g transform="matrix(1 0 0 1 -299 -386 )">
    <path d="M 32.361979166666664 1.8973214285714302  L 41.096354166666664 10.60267857142857  C 41.618923611111114 11.123511904761902  42.06684027777778 11.830357142857146  42.440104166666664 12.723214285714285  C 42.81336805555556 13.61607142857143  43 14.434523809523808  43 15.17857142857143  L 43 47.32142857142857  C 43 48.06547619047619  42.73871527777778 48.697916666666664  42.216145833333336 49.21875  C 41.69357638888889 49.739583333333336  41.05902777777778 50  40.3125 50  L 2.6875 50  C 1.9409722222222225 50  1.3064236111111112 49.739583333333336  0.7838541666666667 49.21875  C 0.2612847222222222 48.697916666666664  0 48.06547619047619  0 47.32142857142857  L 0 2.67857142857143  C 0 1.9345238095238082  0.2612847222222222 1.3020833333333315  0.7838541666666667 0.78125  C 1.3064236111111112 0.2604166666666685  1.9409722222222225 0  2.6875 0  L 27.770833333333336 0  C 28.517361111111114 0  29.338541666666664 0.18601190476190688  30.234375 0.5580357142857151  C 31.130208333333336 0.9300595238095233  31.839409722222225 1.3764880952380931  32.361979166666664 1.8973214285714302  Z M 29.814453125 4.408482142857145  C 29.590494791666664 4.185267857142855  29.20789930555556 3.980654761904756  28 3.794642857142855  L 28 15  L 39.192708333333336 15  C 39.00607638888889 13.746279761904756  38.80078125 13.364955357142854  38.576822916666664 13.14174107142857  L 29.814453125 4.408482142857145  Z M 4 46  L 39 46  L 39 18  L 27.770833333333336 18  C 27.024305555555554 17.857142857142854  26.389756944444446 17.596726190476186  25.8671875 17.075892857142854  C 25.344618055555554 16.555059523809522  25.083333333333336 15.92261904761904  25 15.17857142857143  L 25 4  L 4 4  L 4 46  Z M 15 39.89955357142857  L 11.645833333333332 39.89955357142857  L 11.645833333333332 42.85714285714286  L 20.800130208333332 42.85714285714286  L 20.800130208333332 39.89955357142857  L 18.196614583333332 39.89955357142857  L 18.196614583333332 35.23995535714286  L 22.031901041666664 35.23995535714286  C 23.450303819444446 35.23995535714286  24.551432291666664 35.10044642857143  25.335286458333336 34.82142857142857  C 26.585720486111114 34.39360119047619  27.57953559027778 33.5844494047619  28.316731770833336 32.393973214285715  C 29.053927951388896 31.203497023809522  29.422526041666664 29.845610119047617  29.422526041666664 28.3203125  C 29.422526041666664 26.81361607142857  29.077256944444446 25.50223214285714  28.38671875 24.386160714285715  C 27.696180555555554 23.270089285714285  26.763020833333336 22.4609375  25.587239583333336 21.958705357142854  C 24.69140625 21.605282738095237  23.478298611111114 21.42857142857143  21.947916666666664 22  L 11.645833333333332 22  L 11.645833333333332 24.4140625  L 15 24.4140625  L 15 39.89955357142857  Z M 23.711588541666664 31.668526785714285  C 23.133029513888896 31.94754464285714  22.40516493055556 32.08705357142857  21.527994791666664 32.08705357142857  L 18.196614583333332 32.08705357142857  L 18.196614583333332 24.609375  L 21.555989583333336 24.609375  C 22.526475694444446 24.609375  23.300998263888896 24.776785714285715  23.879557291666664 25.11160714285714  C 24.92469618055556 25.72544642857143  25.447265625000004 26.79501488095238  25.447265625 28.3203125  C 25.447265625000004 29.975818452380953  24.868706597222225 31.09188988095238  23.711588541666664 31.668526785714285  Z " fill-rule="nonzero" fill="#000000" stroke="none" transform="matrix(1 0 0 1 299 386 )" />
  </g>
</svg>