<?xml version="1.0" encoding="utf-8"?>
<svg version="1.1" xmlns:xlink="http://www.w3.org/1999/xlink" width="50px" height="37px" xmlns="http://www.w3.org/2000/svg">
  <g transform="matrix(1 0 0 1 -260 -760 )">
    <path d="M 49.29483767961681 20.5234375  C 49.764945893205606 20.75118371212121  50 21.12784090909091  50 21.65340909090909  C 50 22.19649621212121  49.72503104488203 22.77462121212121  49.17509313464608 23.38778409090909  L 40.23416711016498 33.79403409090909  C 39.47135000886997 34.6875  38.40251907042753 35.445194128787875  37.02767429483768 36.06711647727273  C 35.65282951924783 36.68903882575758  34.37998935604045 37  33.20915380521554 37  L 4.25758382118148 37  C 3.6544261131807696 37  3.1177931523860214 36.8861268939394  2.6476849387972323 36.65838068181818  C 2.1775767252084446 36.43063446969697  1.9425226184140503 36.05397727272727  1.9425226184140503 35.52840909090909  C 1.9425226184140503 34.98532196969697  2.217491573532021 34.40719696969697  2.7674294837679616 33.79403409090909  L 11.708355508249069 23.38778409090909  C 12.471172609544086 22.49431818181818  13.540003547986517 21.7366240530303  14.914848323576372 21.114701704545453  C 16.289693099166225 20.492779356060602  17.562533262373602 20.18181818181818  18.73336881319851 20  L 47.68493879723257 20  C 48.28809650523328 20.18181818181818  48.82472946602803 20.295691287878785  49.29483767961681 20.5234375  Z M 39.116551357104846 8.461647727272725  C 40.28738690792975 9.617897727272725  40.8728046833422 11.001893939393936  40.8728046833422 12.613636363636365  L 40.8728046833422 17  L 18.73336881319851 17  C 17.06581514990243 16.81818181818182  15.3184317899592 17.23425662878788  13.491218733368813 18.06640625  C 11.664005676778428 18.89855587121212  10.209331204541423 19.9453125  9.127195316657795 21.20667613636364  L 0.15965939329430548 31.612926136363637  L 0.026609898882384245 31.77059659090909  C 0.026609898882384245 31.700520833333332  0.022174915735320207 31.591027462121215  0.013304949441192123 31.44211647727273  C 0.0044349831470640415 31.293205492424242  0 31.183712121212125  0 31.113636363636363  L 0 5.886363636363635  C 0 4.274621212121207  0.5854177754124534 2.890625  1.7562533262373603 1.734375  C 2.9270888770622676 0.578125  4.328543551534505 0  5.960617349654071 0  L 14.47578499201703 0  C 16.107858790136596 0  17.509313464608834 0.578125  18.68014901543374 1.734375  C 19.85098456625865 2.890625  20.4364023416711 4.274621212121207  20.4364023416711 5.886363636363635  L 20.4364023416711 7  L 34.91218733368813 7  C 36.5442611318077 6.727272727272726  37.945715806279935 7.305397727272726  39.116551357104846 8.461647727272725  Z " fill-rule="nonzero" fill="#7f7f7f" stroke="none" transform="matrix(1 0 0 1 260 760 )" />
  </g>
</svg>