<?xml version="1.0" encoding="utf-8"?>
<svg version="1.1" xmlns:xlink="http://www.w3.org/1999/xlink" width="50px" height="50px" xmlns="http://www.w3.org/2000/svg">
  <g transform="matrix(1 0 0 1 -80 -753 )">
    <path d="M 28.873697916666668 12.79296875  C 29.069010416666668 12.98828125  29.166666666666668 13.237847222222216  29 13.541666666666668  L 29 28.125  C 29.166666666666668 28.428819444444443  29.069010416666668 28.678385416666664  28.873697916666668 28.873697916666664  C 28.678385416666668 29.069010416666664  28.428819444444446 29.166666666666664  28.125 29  L 17.708333333333336 29  C 17.404513888888893 29.166666666666664  17.154947916666664 29.069010416666664  16.959635416666664 28.873697916666664  C 16.764322916666664 28.678385416666664  16.666666666666664 28.428819444444443  16.666666666666664 28.125  L 16.666666666666664 26.041666666666664  C 16.666666666666664 25.73784722222222  16.764322916666664 25.48828125  16.959635416666664 25.29296875  C 17.154947916666664 25.09765625  17.404513888888893 25  17.708333333333336 25  L 25 25  L 25 13.541666666666668  C 25 13.237847222222216  25.09765625 12.98828125  25.29296875 12.79296875  C 25.488281250000007 12.59765625  25.737847222222225 12.5  26.041666666666668 12.5  L 28.125 12.5  C 28.428819444444446 12.5  28.678385416666668 12.59765625  28.873697916666668 12.79296875  Z M 40.33203125 33.88671875  C 41.91623263888889 31.174045138888886  42.70833333333333 28.211805555555557  42.70833333333333 25  C 42.70833333333333 21.788194444444443  41.91623263888889 18.82595486111111  40.33203125 16.11328125  C 38.747829861111114 13.400607638888884  36.599392361111114 11.252170138888884  33.88671875 9.66796875  C 31.17404513888889 8.08376736111111  28.211805555555557 7.291666666666669  25 7.291666666666669  C 21.788194444444446 7.291666666666669  18.825954861111114 8.08376736111111  16.11328125 9.66796875  C 13.40060763888889 11.252170138888884  11.25217013888889 13.400607638888884  9.66796875 16.11328125  C 8.083767361111112 18.82595486111111  7.291666666666667 21.788194444444443  7.291666666666667 25  C 7.291666666666667 28.211805555555557  8.083767361111112 31.174045138888886  9.66796875 33.88671875  C 11.25217013888889 36.59939236111111  13.40060763888889 38.74782986111111  16.11328125 40.33203125  C 18.825954861111114 41.91623263888889  21.788194444444446 42.70833333333333  25 42.70833333333333  C 28.211805555555557 42.70833333333333  31.17404513888889 41.91623263888889  33.88671875 40.33203125  C 36.599392361111114 38.74782986111111  38.747829861111114 36.59939236111111  40.33203125 33.88671875  Z M 46.64713541666667 12.451171875  C 48.882378472222214 16.281467013888886  50 20.464409722222214  50 25  C 50 29.53559027777778  48.882378472222214 33.71853298611111  46.64713541666667 37.548828125  C 44.411892361111114 41.37912326388889  41.37912326388889 44.41189236111111  37.548828125 46.64713541666667  C 33.718532986111114 48.88237847222223  29.53559027777778 50  25 50  C 20.464409722222225 50  16.28146701388889 48.88237847222223  12.451171875 46.64713541666667  C 8.620876736111112 44.41189236111111  5.588107638888889 41.37912326388889  3.3528645833333335 37.548828125  C 1.1176215277777777 33.71853298611111  0 29.53559027777778  0 25  C 0 20.464409722222214  1.1176215277777777 16.281467013888886  3.3528645833333335 12.451171875  C 5.588107638888889 8.62087673611111  8.620876736111112 5.588107638888884  12.451171875 3.3528645833333313  C 16.28146701388889 1.1176215277777735  20.464409722222225 0  25 0  C 29.53559027777778 0  33.718532986111114 1.1176215277777735  37.548828125 3.3528645833333313  C 41.37912326388889 5.588107638888884  44.411892361111114 8.62087673611111  46.64713541666667 12.451171875  Z " fill-rule="nonzero" fill="#712ed1" stroke="none" transform="matrix(1 0 0 1 80 753 )" />
  </g>
</svg>