<?xml version="1.0" encoding="utf-8"?>
<svg version="1.1" xmlns:xlink="http://www.w3.org/1999/xlink" width="29px" height="34px" xmlns="http://www.w3.org/2000/svg">
  <g transform="matrix(1 0 0 1 -56 -153 )">
    <path d="M 28.244791666666668 9.714285714285714  L 19.333333333333332 9.714285714285714  L 19.333333333333332 0.7589285714285725  C 19.610243055555557 0.9360119047619033  19.836805555555557 1.1130952380952341  20.013020833333332 1.2901785714285725  L 27.716145833333332 9.03125  C 27.892361111111114 9.20833333333333  28.068576388888893 9.436011904761903  28.244791666666668 9.714285714285714  Z M 17 0  L 17 10.321428571428573  C 16.916666666666668 10.827380952380947  17.092881944444443 11.257440476190476  17.4453125 11.61160714285714  C 17.797743055555557 11.965773809523807  18.225694444444443 12.14285714285714  18.729166666666668 12.14285714285714  L 29 12.14285714285714  L 29 32.17857142857143  C 29 32.68452380952381  28.82378472222222 33.11458333333333  28.471354166666668 33.46875  C 28.118923611111114 33.82291666666667  27.690972222222225 34  27.1875 34  L 1.8125 34  C 1.309027777777778 34  0.881076388888889 33.82291666666667  0.5286458333333334 33.46875  C 0.17621527777777776 33.11458333333333  0 32.68452380952381  0 32.17857142857143  L 0 1.8214285714285725  C 0 1.3154761904761896  0.17621527777777776 0.8854166666666654  0.5286458333333334 0.53125  C 0.881076388888889 0.1770833333333346  1.309027777777778 0  1.8125 0  L 17 0  Z " fill-rule="nonzero" fill="#712ed1" stroke="none" transform="matrix(1 0 0 1 56 153 )" />
  </g>
</svg>