<?xml version="1.0" encoding="utf-8"?>
<svg version="1.1" xmlns:xlink="http://www.w3.org/1999/xlink" width="16px" height="12px" xmlns="http://www.w3.org/2000/svg">
  <g transform="matrix(1 0 0 1 -328 -13 )">
    <path d="M 1.7545906955070905 5.117606822291009  C 1.874093950120539 5.237884954703986  2.068311655432467 5.23937767300913  2.189652658670923 5.1209506212267115  C 3.802211869847781 3.5892577483414243  5.942118739761611 2.7351444726343743  8.167069369492765 2.73515008059303  C 10.391801825506604 2.7352474692263513  12.531462913569328 3.5893582843696095  14.143816754217482 5.1209506212267115  C 14.265231239879142 5.239195294222782  14.459299181002962 5.237703726975042  14.578878717381315 5.117606822291009  C 14.578878717381315 5.117606822291009  15.739490169882856 3.947277194790331  15.739490169882856 3.947277194790331  C 15.800038805833537 3.886364381354497  15.833796936379883 3.803854451102552  15.833294470170529 3.718005426809441  C 15.83279200396123 3.632156402516557  15.79807036970783 3.5500465998945856  15.736812865494187 3.4898455003842628  C 11.504900394607091 -0.5623848947514034  4.828569018281314 -0.5623848947514034  0.5966565473942183 3.4898455003842628  C 0.5353543780740893 3.5500019226817585  0.5005722738679879 3.6320867878755507  0.5000069985889581 3.71793593268535  C 0.49944172330998526 3.8037850774951494  0.5331398848948652 3.8863200895661976  0.5936445799569583 3.947277194790331  C 0.5936445799569583 3.947277194790331  1.7545906955070905 5.117606822291009  1.7545906955070905 5.117606822291009  Z M 4.427209801527056 7.810702485117417  C 4.546673140159157 7.930209306872484  4.739721602022485 7.932731650821552  4.862271764690888 7.816386943308089  C 5.767741716068201 6.997154025955069  6.945531287234473 6.543239621115845  8.167069369492765 6.542733928693451  C 9.389415401830604 6.542659094894134  10.568140741500486 6.996612350739497  11.47420961563472 7.816386943308089  C 11.59675977830318 7.932731650821552  11.789808240166451 7.930209306872484  11.909271578798496 7.810702485117417  C 11.909271578798496 7.810702485117417  13.068544379105731 6.640372857616512  13.068544379105731 6.640372857616512  C 13.129594456626137 6.578985743436078  13.163468463587662 6.49570877672727  13.162587908458136 6.409173168960251  C 13.161707353328609 6.322637561193233  13.126145731076349 6.240065951293673  13.063859096425517 6.179931744168471  C 10.304697355641792 3.6155231909663144  6.031784024683816 3.6155231909663144  3.272622283900091 6.179931744168243  C 3.210296886592971 6.240065220744782  3.1747374934900563 6.322678203450778  3.173919570933606 6.409241774734255  C 3.1731016483771555 6.49580534601796  3.207093654028654 6.5790743949376065  3.2682716642684113 6.640372857616512  C 3.2682716642684113 6.640372857616512  4.427209801527056 7.810702485117417  4.427209801527056 7.810702485117417  Z M 8.167069369492765 11.450672704032513  C 8.250692551335135 11.450672704032513  8.330836592385822 11.417229385816881  8.389620296803457 11.357804396125402  C 8.389620296803457 11.357804396125402  10.394921283939993 9.335809179697435  10.394921283939993 9.335809179697435  C 10.456920897911516 9.27501287339419  10.491064478138185 9.191348929575497  10.489290696749435 9.104570475406263  C 10.487516915360686 9.017792021237028  10.44998299243042 8.935590712000021  10.385550718579566 8.87737434561086  C 9.104890637474 7.795103145776238  7.229248101511644 7.795103145776238  5.948588020406078 8.87737434561086  C 5.884111038487788 8.935543903999132  5.846515661523881 9.017719340483382  5.844678521365154 9.104498240305247  C 5.842841381206426 9.191277140126886  5.8769253205835525 9.274967486463083  5.938882791997003 9.335809179697662  C 5.938882791997003 9.335809179697662  7.944518442182073 11.357804396125402  7.944518442182073 11.357804396125402  C 8.003302146599651 11.417229385816881  8.083446187650395 11.450672704032513  8.167069369492765 11.450672704032513  Z " fill-rule="nonzero" fill="#000000" stroke="none" transform="matrix(1 0 0 1 328 13 )" />
  </g>
</svg>