<?xml version="1.0" encoding="utf-8"?>
<svg version="1.1" xmlns:xlink="http://www.w3.org/1999/xlink" width="13px" height="12px" xmlns="http://www.w3.org/2000/svg">
  <g transform="matrix(1 0 0 1 -117 -792 )">
    <path d="M 1.9256250000000001 9.85546875  C 2.028541666666667 9.759114583333334  2.08 9.640625  2.08 9.5  C 2.08 9.364583333333334  2.028541666666667 9.247395833333334  1.9256250000000001 9.1484375  C 1.8227083333333336 9.049479166666666  1.7008333333333332 9  1.56 9  C 1.41375 9  1.2905208333333333 9.049479166666666  1.1903125 9.1484375  C 1.0901041666666669 9.247395833333334  1.04 9.364583333333334  1.04 9.5  C 1.04 9.640625  1.0901041666666669 9.759114583333334  1.1903125 9.85546875  C 1.2905208333333333 9.951822916666666  1.41375 10  1.56 10  C 1.7008333333333332 10  1.8227083333333336 9.951822916666666  1.9256250000000001 9.85546875  Z M 3.225625 5.1484375  C 3.3285416666666667 5.247395833333332  3.38 5.364583333333332  3.38 5.5  L 3.38 10.5  C 3.38 10.635416666666666  3.3285416666666667 10.752604166666666  3.225625 10.8515625  C 3.1227083333333336 10.950520833333334  3.000833333333334 11  2.86 11  L 0.52 11  C 0.3791666666666667 11  0.25729166666666664 10.950520833333334  0.154375 10.8515625  C 0.05145833333333333 10.752604166666666  0 10.635416666666666  0 10.5  L 0 5.5  C 0 5.364583333333332  0.05145833333333333 5.247395833333332  0.154375 5.1484375  C 0.25729166666666664 5.049479166666667  0.3791666666666667 5  0.52 5  L 2.86 5  C 3.000833333333334 5  3.1227083333333336 5.049479166666667  3.225625 5.1484375  Z M 12.536875 4.4453125  C 12.845625 4.7421875  13 5.09375  13 5.5  C 13 5.947916666666666  12.851041666666667 6.335937500000001  12.553125 6.664062500000001  C 12.634375000000002 6.893229166666666  12.675 7.091145833333333  12.674999999999999 7.257812499999999  C 12.691250000000002 7.653645833333333  12.57479166666667 8.010416666666664  12.325625 8.328125  C 12.417708333333335 8.619791666666664  12.417708333333335 8.924479166666664  12.325625 9.2421875  C 12.244375 9.5390625  12.098125 9.783854166666666  11.886875 9.9765625  C 11.935625 10.559895833333334  11.802916666666667 11.03125  11.48875 11.390625  C 11.142083333333334 11.786458333333334  10.608541666666667 11.989583333333334  9.888125 12  L 9.595625 12  L 8.978125 12  L 8.84 12  C 8.4825 12  8.092500000000001 11.959635416666666  7.67 11.87890625  C 7.2475 11.798177083333334  6.9184375000000005 11.72265625  6.6828125 11.65234375  C 6.4471875 11.58203125  6.120833333333334 11.479166666666666  5.703749999999999 11.34375  C 5.0375000000000005 11.119791666666666  4.609583333333334 11.005208333333334  4.42 11  C 4.279166666666668 10.994791666666666  4.1572916666666675 10.944010416666666  4.054375 10.84765625  C 3.951458333333333 10.751302083333334  3.9000000000000004 10.635416666666666  3.9 10.5  L 3.9 5.4921875  C 3.9000000000000004 5.361979166666666  3.9487500000000004 5.248697916666666  4.046250000000001 5.15234375  C 4.143750000000001 5.055989583333334  4.260208333333334 5.002604166666666  4.395625 4.9921875  C 4.525625 4.981770833333332  4.731458333333334 4.828124999999998  5.013125 4.53125  C 5.294791666666668 4.234374999999999  5.568333333333333 3.919270833333332  5.83375 3.5859375  C 6.202083333333334 3.1328125000000004  6.475625000000001 2.8203124999999996  6.654375 2.6484375  C 6.751875 2.5546875  6.835833333333333 2.4296875000000004  6.90625 2.2734375  C 6.9766666666666675 2.1171874999999996  7.024062499999999 1.9908854166666656  7.0484375 1.8945312499999996  C 7.0728125 1.7981770833333321  7.109375 1.640625  7.158125 1.4218750000000004  C 7.196041666666667 1.21875  7.229895833333335 1.0598958333333321  7.2596875 0.9453124999999996  C 7.289479166666667 0.8307291666666656  7.342291666666667 0.6953125000000004  7.418125000000001 0.5390625  C 7.493958333333334 0.38281249999999956  7.5860416666666675 0.2526041666666665  7.694375000000001 0.14843749999999956  C 7.797291666666667 0.049479166666666075  7.919166666666667 0  8.06 0  C 8.309166666666666 0  8.532604166666667 0.027343750000000444  8.7303125 0.08203125  C 8.928020833333335 0.13671874999999956  9.090520833333334 0.20442708333333215  9.2178125 0.28515625000000044  C 9.345104166666667 0.3658854166666661  9.4534375 0.4713541666666661  9.5428125 0.6015625000000004  C 9.6321875 0.7317708333333321  9.6971875 0.8489583333333321  9.7378125 0.9531250000000004  C 9.7784375 1.057291666666666  9.8109375 1.1875000000000004  9.8353125 1.3437499999999996  C 9.8596875 1.5  9.873229166666667 1.6171875  9.8759375 1.6953124999999996  C 9.878645833333335 1.7734375000000004  9.88 1.875  9.88 1.9999999999999996  C 9.88 2.1979166666666665  9.854270833333334 2.395833333333332  9.8028125 2.5937500000000004  C 9.751354166666667 2.791666666666666  9.699895833333334 2.9479166666666665  9.6484375 3.0625000000000004  C 9.596979166666667 3.1770833333333317  9.5225 3.3229166666666665  9.424999999999999 3.4999999999999996  C 9.40875 3.5312500000000004  9.381666666666668 3.5781250000000004  9.34375 3.6406249999999996  C 9.305833333333334 3.703125  9.276041666666668 3.7604166666666656  9.254375 3.8125000000000004  C 9.232708333333335 3.8645833333333326  9.211041666666668 3.9270833333333317  9.189375 4  L 11.44 4  C 11.862499999999999 4  12.228125 4.1484375  12.536875 4.4453125  Z " fill-rule="nonzero" fill="#712ed1" stroke="none" transform="matrix(1 0 0 1 117 792 )" />
  </g>
</svg>