<?xml version="1.0" encoding="utf-8"?>
<svg version="1.1" xmlns:xlink="http://www.w3.org/1999/xlink" width="13px" height="14px" xmlns="http://www.w3.org/2000/svg">
  <g transform="matrix(1 0 0 1 -18 -63 )">
    <path d="M 7.97265625 8.5859375  C 8.657552083333334 7.8483573717948705  9 6.960737179487179  9 5.923076923076923  C 9 4.885416666666666  8.657552083333334 3.9977964743589736  7.97265625 3.260216346153846  C 7.287760416666667 2.522636217948717  6.463541666666667 2.153846153846154  5.5 2.153846153846154  C 4.536458333333334 2.153846153846154  3.712239583333334 2.522636217948717  3.02734375 3.260216346153846  C 2.342447916666667 3.9977964743589736  2 4.885416666666666  2 5.923076923076923  C 2 6.960737179487179  2.342447916666667 7.8483573717948705  3.02734375 8.5859375  C 3.712239583333334 9.323517628205126  4.536458333333334 9.692307692307692  5.5 9.692307692307692  C 6.463541666666667 9.692307692307692  7.287760416666667 9.323517628205126  7.97265625 8.5859375  Z M 12.7109375 12.165865384615383  C 12.903645833333334 12.373397435897438  13 12.625801282051283  13 12.923076923076923  C 13 13.214743589743591  12.901041666666668 13.467147435897438  12.703125 13.680288461538462  C 12.505208333333334 13.893429487179487  12.270833333333334 14  12 14  C 11.71875 14  11.484375 13.893429487179487  11.296875 13.680288461538462  L 8.6171875 10.802884615384617  C 7.684895833333334 11.498397435897438  6.645833333333334 11.846153846153847  5.5 11.846153846153847  C 4.755208333333334 11.846153846153847  4.04296875 11.690504807692308  3.36328125 11.379206730769232  C 2.68359375 11.067908653846153  2.09765625 10.647235576923077  1.60546875 10.1171875  C 1.11328125 9.587139423076923  0.7226562500000001 8.956129807692308  0.43359375 8.224158653846153  C 0.14453125 7.4921875  0 6.7251602564102555  0 5.923076923076923  C 0 5.120993589743588  0.14453125 4.353966346153846  0.43359375 3.621995192307692  C 0.7226562500000001 2.8900240384615383  1.11328125 2.259014423076924  1.60546875 1.728966346153846  C 2.09765625 1.1989182692307698  2.68359375 0.7782451923076921  3.36328125 0.46694711538461586  C 4.04296875 0.1556490384615381  4.755208333333334 0  5.5 0  C 6.244791666666667 0  6.95703125 0.1556490384615381  7.63671875 0.46694711538461586  C 8.31640625 0.7782451923076921  8.90234375 1.1989182692307698  9.39453125 1.728966346153846  C 9.88671875 2.259014423076924  10.27734375 2.8900240384615383  10.56640625 3.621995192307692  C 10.85546875 4.353966346153846  11 5.120993589743588  11 5.923076923076923  C 11 7.157051282051281  10.677083333333334 8.276041666666666  10.03125 9.280048076923077  L 12.7109375 12.165865384615383  Z " fill-rule="nonzero" fill="#808080" stroke="none" transform="matrix(1 0 0 1 18 63 )" />
  </g>
</svg>