<?xml version="1.0" encoding="utf-8"?>
<svg version="1.1" xmlns:xlink="http://www.w3.org/1999/xlink" width="15px" height="14px" xmlns="http://www.w3.org/2000/svg">
  <g transform="matrix(1 0 0 1 -10 -50 )">
    <path d="M 9.19921875 8.5859375  C 9.989483173076923 7.8483573717948705  10.384615384615385 6.960737179487179  10.384615384615385 5.923076923076923  C 10.384615384615385 4.885416666666666  9.989483173076923 3.9977964743589736  9.19921875 3.260216346153846  C 8.408954326923078 2.522636217948717  7.4579326923076925 2.153846153846154  6.346153846153846 2.153846153846154  C 5.234375000000001 2.153846153846154  4.283353365384616 2.522636217948717  3.493088942307692 3.260216346153846  C 2.7028245192307696 3.9977964743589736  2.307692307692308 4.885416666666666  2.307692307692308 5.923076923076923  C 2.307692307692308 6.960737179487179  2.7028245192307696 7.8483573717948705  3.493088942307692 8.5859375  C 4.283353365384616 9.323517628205126  5.234375000000001 9.692307692307692  6.346153846153846 9.692307692307692  C 7.4579326923076925 9.692307692307692  8.408954326923078 9.323517628205126  9.19921875 8.5859375  Z M 14.666466346153847 12.165865384615383  C 14.888822115384617 12.373397435897438  15 12.625801282051283  15 12.923076923076923  C 15 13.214743589743591  14.885817307692308 13.467147435897438  14.657451923076923 13.680288461538462  C 14.42908653846154 13.893429487179487  14.158653846153847 14  13.846153846153847 14  C 13.521634615384615 14  13.251201923076923 13.893429487179487  13.034855769230768 13.680288461538462  L 9.942908653846153 10.802884615384617  C 8.8671875 11.498397435897438  7.668269230769232 11.846153846153847  6.346153846153846 11.846153846153847  C 5.486778846153847 11.846153846153847  4.6649639423076925 11.690504807692308  3.880709134615384 11.379206730769232  C 3.096454326923077 11.067908653846153  2.4203725961538463 10.647235576923077  1.8524639423076923 10.1171875  C 1.2845552884615385 9.587139423076923  0.8338341346153848 8.956129807692308  0.5003004807692307 8.224158653846153  C 0.16676682692307693 7.4921875  0 6.7251602564102555  0 5.923076923076923  C 0 5.120993589743588  0.16676682692307693 4.353966346153846  0.5003004807692307 3.621995192307692  C 0.8338341346153848 2.8900240384615383  1.2845552884615385 2.259014423076924  1.8524639423076923 1.728966346153846  C 2.4203725961538463 1.1989182692307698  3.096454326923077 0.7782451923076921  3.880709134615384 0.46694711538461586  C 4.6649639423076925 0.1556490384615381  5.486778846153847 0  6.346153846153846 0  C 7.205528846153847 0  8.02734375 0.1556490384615381  8.811598557692308 0.46694711538461586  C 9.595853365384615 0.7782451923076921  10.271935096153847 1.1989182692307698  10.83984375 1.728966346153846  C 11.407752403846153 2.259014423076924  11.858473557692308 2.8900240384615383  12.192007211538462 3.621995192307692  C 12.525540865384615 4.353966346153846  12.692307692307692 5.120993589743588  12.692307692307692 5.923076923076923  C 12.692307692307692 7.157051282051281  12.31971153846154 8.276041666666666  11.574519230769232 9.280048076923077  L 14.666466346153847 12.165865384615383  Z " fill-rule="nonzero" fill="#808080" stroke="none" transform="matrix(1 0 0 1 10 50 )" />
  </g>
</svg>