<?xml version="1.0" encoding="utf-8"?>
<svg version="1.1" xmlns:xlink="http://www.w3.org/1999/xlink" width="24px" height="19px" xmlns="http://www.w3.org/2000/svg">
  <g transform="matrix(1 0 0 1 -446 -637 )">
    <path d="M 8.198549916341328 15.198691460055098  C 8.559955382041272 15.080922865013774  8.838817624093698 14.873737373737374  9.035136642498605 14.577134986225897  C 9.222532069157836 14.280532598714416  9.271611823759065 13.979568411386593  9.182375906302287 13.674242424242426  C 9.093139988845511 13.368916437098253  8.892359174567764 13.150826446280991  8.580033463469046 13.019972451790633  C 8.276631344116009 12.897842056932964  7.950920245398772 12.893480257116622  7.602900167317346 13.006887052341597  C 7.254880089235916 13.120293847566574  6.987172336865588 13.320936639118456  6.799776910206358 13.608815426997246  C 6.60345789180145 13.905417814508722  6.545454545454547 14.204201101928376  6.625766871165645 14.5051652892562  C 6.706079196876744 14.806129476584022  6.897936419408813 15.026400367309456  7.201338538761851 15.165977961432507  C 7.504740658114892 15.305555555555555  7.837144450641383 15.316460055096417  8.198549916341328 15.198691460055098  Z M 9.99888455103179 13.235881542699726  C 10.132738427216955 13.187901744719927  10.23089793641941 13.107208448117538  10.293363078639153 12.993801652892563  C 10.364751812604576 12.880394857667586  10.380368098159511 12.764807162534433  10.34021193530396 12.647038567493112  C 10.300055772448411 12.529269972451791  10.22197434467373 12.448576675849402  10.105967651979922 12.40495867768595  C 9.981037367540436 12.361340679522494  9.85387618516453 12.36352157943067  9.724484104852202 12.411501377410469  C 9.595092024539877 12.459481175390264  9.499163413273845 12.540174471992652  9.4366982710541 12.65358126721763  C 9.284997211377581 12.924012855831034  9.343000557724483 13.120293847566574  9.610708310094815 13.242424242424244  C 9.7356385945343 13.286042240587694  9.865030674846626 13.28386134067952  9.99888455103179 13.235881542699726  Z M 12.588957055214724 11.901170798898072  C 13.012827663134413 12.690656565656564  13.023982152816508 13.521579430670338  12.622420524261013 14.393939393939394  C 12.22085889570552 15.28374655647383  11.51589514779699 15.938016528925619  10.507529280535415 16.356749311294767  C 9.499163413273845 16.77548209366391  8.499721137757948 16.827823691460054  7.509202453987731 16.513774104683193  C 6.5543781372002226 16.217171717171716  5.896263245956497 15.665404040404043  5.534857780256553 14.858471074380166  C 5.173452314556609 14.05153810835629  5.2024539877300615 13.23370064279155  5.621862799776911 12.40495867768595  C 6.04127161182376 11.59366391184573  6.71723368655884 10.987373737373737  7.649749023982153 10.586088154269973  C 8.582264361405468 10.184802571166205  9.521472392638037 10.101928374655646  10.467373117679866 10.337465564738292  C 11.457891801450085 10.590449954086315  12.165086447295035 11.111685032139578  12.588957055214724 11.901170798898072  Z M 15.025097601784719 15.761363636363637  C 16.33240379252649 14.727617079889807  16.923591745677637 13.573921028466481  16.798661461238147 12.300275482093664  C 16.71834913552705 11.462809917355372  16.321249302844397 10.721303948576674  15.607361963190185 10.075757575757574  C 14.893474623535974 9.430211202938475  13.96319018404908 8.95477502295684  12.816508644729504 8.649449035812673  C 11.669827105409928 8.344123048668504  10.445064138315672 8.252525252525253  9.142219743446738 8.37465564738292  C 7.152258784160626 8.575298438934801  5.503625209146682 9.192493112947659  4.196319018404908 10.226239669421487  C 2.8890128276631346 11.259986225895316  2.297824874511991 12.41368227731864  2.422755158951478 13.68732782369146  C 2.5030674846625764 14.524793388429753  2.9001673173452316 15.26629935720845  3.614054656999442 15.911845730027549  C 4.327941996653654 16.55739210284665  5.258226436140547 17.032828282828284  6.404907975460123 17.338154269972453  C 7.5515895147797 17.64348025711662  8.776352481873955 17.735078053259873  10.07919687674289 17.612947658402202  C 12.069157836029003 17.41230486685032  13.717791411042946 16.795110192837466  15.025097601784719 15.761363636363637  Z M 20.466257668711656 10.828168044077135  C 20.7696597880647 11.28615702479339  20.92136084774122 11.794306703397613  20.921360847741216 12.352617079889807  C 20.92136084774122 12.945821854912763  20.756274400446184 13.554292929292929  20.426101505856106 14.178030303030303  C 20.095928611266036 14.801767676767678  19.6095928611266 15.399334251606977  18.967094255437814 15.97073002754821  C 18.324595649749025 16.54212580348944  17.572783045175687 17.054637281910008  16.711656441717793 17.50826446280992  C 15.8505298382599 17.961891643709826  14.84216397099833 18.323921028466483  13.686558839933074 18.59435261707989  C 12.53095370886782 18.864784205693297  11.32403792526492 19  10.065811489124373 19  C 8.807585052983825 19  7.580591187953152 18.853879706152433  6.3848298940323485 18.5616391184573  C 5.189068600111545 18.269398530762167  4.1160066926938095 17.86375114784206  3.1656441717791406 17.34469696969697  C 2.2152816508644726 16.825642791551882  1.4500836586726158 16.16701101928375  0.8700501952035694 15.368801652892563  C 0.29001673173452314 14.570592286501377  0 13.700413223140496  0 12.758264462809915  C 0 11.755050505050503  0.3100948131622978 10.686409550045914  0.9302844394868934 9.552341597796142  C 1.5504740658114895 8.418273645546371  2.4316787506971558 7.2929292929292915  3.5738984941438927 6.176308539944903  C 5.081985499163414 4.702020202020201  6.60568878973787 3.6726354453627152  8.14500836586726 3.0881542699724513  C 9.684327941996653 2.5036730945821852  10.784160624651424 2.5342056932966006  11.444506413831569 3.1797520661157037  C 12.024539877300615 3.7380624426078946  12.11377579475739 4.649678604224057  11.712214166201896 5.914600550964188  C 11.676519799219186 6.036730945821853  11.672058003346347 6.123966942148759  11.69882877858338 6.176308539944903  C 11.725599553820413 6.228650137741044  11.770217512548802 6.259182736455462  11.832682654768544 6.267906336088155  C 11.895147796988288 6.276629935720844  11.959843837144453 6.2744490358126725  12.026770775237033 6.261363636363637  C 12.093697713329618 6.2482782369146  12.15393195761294 6.233011937557391  12.207473508087004 6.215564738292011  L 12.287785833798104 6.18939393939394  C 13.528165086447295 5.674701561065198  14.625766871165645 5.417355371900827  15.580591187953152 5.417355371900827  C 16.53541550474066 5.417355371900827  17.218070273285 5.683425160697887  17.62855549358617 6.215564738292011  C 18.03011712214166 6.765151515151514  18.03011712214166 7.541551882460973  17.62855549358617 8.544765840220386  C 17.610708310094815 8.65817263544536  17.590630228667038 8.745408631772268  17.568321249302844 8.806473829201101  C 17.54601226993865 8.867539026629935  17.566090351366427 8.922061524334252  17.62855549358617 8.97004132231405  C 17.691020635805913 9.018021120293849  17.74456218627998 9.050734618916437  17.789180145008366 9.068181818181818  C 17.833798103736754 9.085629017447198  17.909648633575014 9.11179981634527  18.016731734523145 9.146694214876034  C 18.52537646402677 9.303719008264462  18.984941438929173 9.508723599632688  19.39542665923034 9.761707988980717  C 19.805911879531514 10.014692378328741  20.162855549358618 10.370179063360881  20.466257668711656 10.828168044077135  Z M 18.578918014500836 3.3302341597796152  C 19.10540992749582 3.491620752984389  19.556051310652535 3.777318640955003  19.930842163970997 4.18732782369146  C 20.30563301728946 4.5973370064279155  20.548800892359175 5.070592286501379  20.660345789180145 5.607093663911845  C 20.771890686001115 6.143595041322312  20.742889012827664 6.656106519742881  20.57334076965979 7.144628099173553  C 20.501952035694366 7.345270890725435  20.370329057445623 7.493572084481175  20.17847183491355 7.589531680440772  C 19.986614612381484 7.6854912764003664  19.78806469604016 7.702938475665748  19.582822085889568 7.641873278236914  C 19.377579475738987 7.5720844811753905  19.225878416062468 7.443411386593203  19.12771890686001 7.255853994490359  C 19.029559397657557 7.068296602387512  19.011712214166206 6.874196510560146  19.074177356385945 6.673553719008265  C 19.2526491912995 6.123966942148761  19.14556609035137 5.639807162534436  18.752928053541552 5.22107438016529  C 18.360290016731735 4.8023415977961434  17.88287785833798 4.649678604224057  17.32069157836029 4.763085399449036  C 17.106525376464027 4.806703397612488  16.905744562186282 4.771808999081724  16.71834913552705 4.65840220385675  C 16.53095370886782 4.544995408631771  16.41940881204685 4.383608815426998  16.383714445064136 4.174242424242425  C 16.33909648633575 3.964876033057852  16.374790853318462 3.770775941230485  16.49079754601227 3.59194214876033  C 16.606804238706083 3.413108356290174  16.771890686001115 3.301882460973369  16.98605688789738 3.258264462809918  C 17.52147239263804 3.1448576675849393  18.05242610150586 3.1688475665748372  18.578918014500836 3.3302341597796152  Z M 19.569436698271055 0.29442148760330533  C 20.64919129949805 0.6215564738292013  21.577244841048522 1.2082185491276387  22.353597322922475 2.054407713498622  C 23.129949804796432 2.891873278236914  23.631901840490798 3.8623737373737352  23.85945343000558 4.965909090909091  C 24.087005019520355 6.069444444444444  24.026770775237033 7.122819100091827  23.678750697155603 8.126033057851238  C 23.598438371444505 8.361570247933885  23.44673731176799 8.536042240587694  23.223647518126043 8.649449035812673  C 23.000557724484107 8.76285583103765  22.768544339096486 8.780303030303031  22.52760736196319 8.701790633608816  C 22.286670384829897 8.623278236914599  22.108198549916345 8.474977043158862  21.992191857222533 8.256887052341597  C 21.876185164528724 8.038797061524333  21.85387618516453 7.811983471074381  21.92526491912995 7.576446280991735  C 22.175125488008923 6.86111111111111  22.21974344673731 6.110881542699723  22.059118795315115 5.325757575757575  C 21.898494143892915 4.540633608815427  21.541550474065815 3.851469237832873  20.988287785833798 3.258264462809918  C 20.435025097601788 2.65633608815427  19.77467930842164 2.239784205693295  19.007250418293363 2.0086088154269977  C 18.239821528165088 1.7774334251606962  17.467930842163973 1.7403581267217634  16.691578360290016 1.8973829201101924  C 16.441717791411044 1.9497245179063363  16.209704406023423 1.9082874196510546  15.995538204127161 1.7730716253443517  C 15.781372002230897 1.6378558310376468  15.647518126045734 1.448117539026627  15.593976575571668 1.2038567493112944  C 15.540435025097603 0.9595959595959594  15.582822085889571 0.7349632690541756  15.721137757947574 0.5299586776859513  C 15.85945343000558 0.3249540863177227  16.053541550474066 0.1962809917355376  16.303402119353038 0.1439393939393938  C 17.401003904071388 -0.08287419651056327  18.48968209704406 -0.032713498622588544  19.569436698271055 0.29442148760330533  Z " fill-rule="nonzero" fill="#000000" stroke="none" transform="matrix(1 0 0 1 446 637 )" />
  </g>
</svg>