<?xml version="1.0" encoding="utf-8"?>
<svg version="1.1" xmlns:xlink="http://www.w3.org/1999/xlink" width="22px" height="22px" xmlns="http://www.w3.org/2000/svg">
  <g transform="matrix(1 0 0 1 -386 -635 )">
    <path d="M 0 15.616071428571429  C 0 13.36532738095238  1.0523917995444192 11.458333333333332  3.157175398633257 9.895089285714285  C 3.0903568716780567 9.739583333333332  3.0569476082004554 9.526785714285715  3.0569476082004554 9.256696428571429  C 3.0569476082004554 9.09300595238095  3.1028853454821568 8.892485119047617  3.194760820045558 8.655133928571429  C 3.2866362946089605 8.417782738095237  3.386864085041762 8.23363095238095  3.495444191343964 8.102678571428571  C 3.487091875474564 7.922619047619047  3.5184130599848147 7.705729166666666  3.5894077448747153 7.452008928571429  C 3.6604024297646167 7.19828869047619  3.7543659832953686 7.022321428571429  3.87129840546697 6.924107142857144  C 3.87129840546697 5.786458333333332  4.257593014426728 4.605840773809522  5.030182232346242 3.3822544642857144  C 5.802771450265756 2.158668154761905  6.711085801063023 1.3013392857142854  7.755125284738041 0.8102678571428561  C 8.916097190584663 0.27008928571428537  10.269172361427486 0  11.814350797266515 0  C 12.925208807896736 0  14.036066818526958 0.22507440476190732  15.146924829157175 0.6752232142857146  C 15.556188306757784 0.8470982142857146  15.93204252088079 1.0435267857142854  16.274487471526196 1.2645089285714293  C 16.6169324221716 1.4854910714285707  16.913439635535305 1.7146577380952366  17.164009111617315 1.9520089285714293  C 17.414578587699317 2.189360119047617  17.644267274107822 2.4676339285714293  17.853075170842825 2.786830357142856  C 18.06188306757783 3.1060267857142856  18.237281700835233 3.408854166666666  18.379271070615033 3.6953125  C 18.521260440394837 3.9817708333333317  18.65698557327259 4.327566964285714  18.786446469248293 4.732700892857144  C 18.915907365223994 5.137834821428571  19.022399392558846 5.504092261904761  19.105922551252846 5.831473214285714  C 19.18944570994685 6.158854166666666  19.28132118451025 6.559895833333332  19.381548974943055 7.034598214285714  L 19.394077448747154 7.095982142857144  C 19.85345482156416 7.775297619047617  20.083143507972665 8.389136904761905  20.083143507972665 8.9375  C 20.083143507972665 9.052083333333332  20.045558086560362 9.215773809523807  19.970387243735765 9.428571428571429  C 19.89521640091116 9.641369047619046  19.85763097949886 9.796875  19.85763097949886 9.895089285714285  C 19.85763097949886 9.90327380952381  19.863895216400913 9.917596726190476  19.876423690205012 9.938058035714285  C 19.888952164009112 9.958519345238095  19.903568716780562 9.978980654761905  19.920273348519363 9.999441964285715  C 19.936977980258163 10.019903273809524  19.945330296127562 10.03422619047619  19.945330296127562 10.042410714285715  C 20.588458618071375 10.975446428571429  21.091685649202734 11.853236607142858  21.45501138952164 12.67578125  C 21.818337129840547 13.498325892857142  22 14.3515625  22 15.235491071428571  C 22 15.587425595238093  21.918564920273347 15.996651785714285  21.755694760820045 16.463169642857142  C 21.592824601366743 16.9296875  21.361047835990888 17.16294642857143  21.060364464692483 17.16294642857143  C 20.985193621867882 17.16294642857143  20.90375854214123 17.132254464285715  20.81605922551253 17.070870535714285  C 20.728359908883828 17.009486607142858  20.649012908124526 16.937872023809526  20.578018223234626 16.856026785714285  C 20.507023538344725 16.774181547619047  20.42767653758542 16.66778273809524  20.33997722095672 16.536830357142858  C 20.252277904328018 16.405877976190474  20.18545937737282 16.297433035714285  20.139521640091115 16.211495535714285  C 20.093583902809417 16.125558035714285  20.037205770690967 16.019159226190474  19.970387243735765 15.892299107142858  C 19.903568716780562 15.765438988095239  19.865983295368263 15.693824404761902  19.85763097949886 15.677455357142858  C 19.849278663629462 15.669270833333332  19.836750189825363 15.665178571428571  19.820045558086562 15.665178571428571  L 19.757403189066057 15.714285714285715  C 19.264616552771447 16.97470238095238  18.71336370539104 17.887276785714285  18.10364464692483 18.45200892857143  C 18.270690964312834 18.6156994047619  18.52752467729689 18.77325148809524  18.87414578587699 18.92466517857143  C 19.220766894457103 19.07607886904762  19.50892179195141 19.24590773809524  19.73861047835991 19.434151785714285  C 19.968299164768414 19.622395833333332  20.116552771450266 19.888392857142858  20.18337129840547 20.232142857142858  C 20.166666666666668 20.264880952380953  20.149962034927867 20.330357142857142  20.133257403189067 20.42857142857143  C 20.11655277145027 20.526785714285715  20.087319665907366 20.60044642857143  20.045558086560362 20.64955357142857  C 19.511009870918755 21.443452380952383  18.249810174639336 21.840401785714285  16.261958997722097 21.840401785714285  C 15.819286256643888 21.840401785714285  15.357820804859532 21.80357142857143  14.877562642369021 21.729910714285715  C 14.397304479878512 21.65625  13.988041002277905 21.574404761904763  13.649772209567198 21.484375  C 13.311503416856493 21.39434523809524  12.875094912680334 21.271577380952383  12.340546697038723 21.11607142857143  C 12.215261958997722 21.07514880952381  12.11921032649962 21.046502976190474  12.052391799544418 21.03013392857143  C 11.935459377372817 20.997395833333332  11.743356112376615 20.978980654761905  11.47608200455581 20.974888392857142  C 11.208807896735005 20.970796130952383  11.041761579347 20.96465773809524  10.974943052391799 20.956473214285715  C 10.632498101746394 21.324776785714285  10.100037965072135 21.59077380952381  9.377562642369021 21.754464285714285  C 8.655087319665908 21.91815476190476  7.951404707668946 22  7.266514806378132 22  C 6.974183750949128 22  6.686028853454822 21.993861607142858  6.402050113895217 21.98158482142857  C 6.118071374335612 21.969308035714285  5.729688686408505 21.93247767857143  5.236902050113896 21.87109375  C 4.744115413819286 21.80970982142857  4.3223234624145785 21.725818452380953  3.971526195899772 21.619419642857142  C 3.620728929384966 21.513020833333332  3.3096051632498105 21.349330357142858  3.038154897494305 21.128348214285715  C 2.7667046317388007 20.90736607142857  2.6309794988610484 20.64546130952381  2.630979498861048 20.34263392857143  C 2.6309794988610484 20.015252976190474  2.672741078208049 19.771763392857142  2.7562642369020502 19.61216517857143  C 2.8397873955960518 19.452566964285715  3.011009870918755 19.25409226190476  3.2699316628701594 19.01674107142857  C 3.3618071374335616 19.000372023809526  3.5309415337889147 18.94717261904762  3.777334851936219 18.857142857142858  C 4.0237281700835235 18.7671130952381  4.230447987851178 18.718005952380953  4.39749430523918 18.70982142857143  C 4.430903568716781 18.70982142857143  4.4893697798025824 18.7016369047619  4.572892938496583 18.685267857142858  C 4.589597570235384 18.66889880952381  4.597949886104784 18.65252976190476  4.597949886104784 18.636160714285715  L 4.572892938496583 18.599330357142858  C 4.171981776765376 18.5093005952381  3.7209567198177678 18.077566964285715  3.2198177676537583 17.304129464285715  C 2.7186788154897497 16.530691964285715  2.413819286256644 15.890252976190476  2.305239179954442 15.3828125  L 2.2425968109339407 15.345982142857142  C 2.2091875474563403 15.345982142857142  2.1590736522399396 15.42782738095238  2.092255125284738 15.591517857142858  C 1.941913439635535 15.927083333333332  1.7143128321943812 16.23195684523809  1.4094533029612757 16.506138392857142  C 1.1045937737281701 16.78031994047619  0.7809415337889144 16.93377976190476  0.438496583143508 16.966517857142858  L 0.42596810933940776 16.966517857142858  C 0.3925588458618071 16.966517857142858  0.3675018982536066 16.94810267857143  0.3507972665148064 16.91127232142857  C 0.33409263477600615 16.874441964285715  0.31321184510250566 16.851934523809526  0.28815489749430523 16.84375  C 0.09605163249810175 16.401785714285715  0 15.992559523809524  0 15.616071428571429  Z " fill-rule="nonzero" fill="#000000" stroke="none" transform="matrix(1 0 0 1 386 635 )" />
  </g>
</svg>