<?xml version="1.0" encoding="utf-8"?>
<svg version="1.1" xmlns:xlink="http://www.w3.org/1999/xlink" width="19px" height="19px" xmlns="http://www.w3.org/2000/svg">
  <g transform="matrix(1 0 0 1 -345 -48 )">
    <path d="M 11.65234375 11.65234375  C 12.653345352564104 10.651342147435896  13.153846153846153 9.446714743589743  13.153846153846153 8.03846153846154  C 13.153846153846153 6.630208333333332  12.653345352564104 5.425580929487179  11.65234375 4.424579326923077  C 10.651342147435898 3.423577724358973  9.446714743589745 2.9230769230769234  8.038461538461538 2.9230769230769234  C 6.630208333333334 2.9230769230769234  5.425580929487181 3.423577724358973  4.424579326923077 4.424579326923077  C 3.4235777243589745 5.425580929487179  2.9230769230769234 6.630208333333332  2.9230769230769234 8.03846153846154  C 2.9230769230769234 9.446714743589743  3.4235777243589745 10.651342147435896  4.424579326923077 11.65234375  C 5.425580929487181 12.653345352564099  6.630208333333334 13.153846153846153  8.038461538461538 13.153846153846153  C 9.446714743589745 13.153846153846153  10.651342147435898 12.653345352564099  11.65234375 11.65234375  Z M 18.57752403846154 16.510817307692307  C 18.85917467948718 16.79246794871795  19 17.135016025641026  19 17.53846153846154  C 19 17.934294871794872  18.85536858974359 18.27684294871795  18.56610576923077 18.56610576923077  C 18.27684294871795 18.855368589743588  17.934294871794872 19  17.53846153846154 19  C 17.127403846153847 19  16.78485576923077 18.855368589743588  16.510817307692307 18.56610576923077  L 12.59435096153846 14.661057692307693  C 11.231770833333334 15.60496794871795  9.713141025641027 16.076923076923077  8.038461538461538 16.076923076923077  C 6.949919871794872 16.076923076923077  5.908954326923077 15.865685096153847  4.915564903846153 15.443209134615387  C 3.922175480769231 15.020733173076923  3.0658052884615383 14.44981971153846  2.346454326923077 13.73046875  C 1.6271033653846154 13.01111778846154  1.056189903846154 12.154747596153847  0.6337139423076923 11.161358173076923  C 0.21123798076923078 10.16796875  0 9.127003205128203  0 8.03846153846154  C 0 6.94991987179487  0.21123798076923078 5.908954326923077  0.6337139423076923 4.915564903846153  C 1.056189903846154 3.9221754807692304  1.6271033653846154 3.065805288461539  2.346454326923077 2.3464543269230766  C 3.0658052884615383 1.6271033653846163  3.922175480769231 1.0561899038461535  4.915564903846153 0.633713942307693  C 5.908954326923077 0.21123798076923028  6.949919871794872 0  8.038461538461538 0  C 9.127003205128206 0  10.16796875 0.21123798076923028  11.161358173076923 0.633713942307693  C 12.154747596153847 1.0561899038461535  13.01111778846154 1.6271033653846163  13.73046875 2.3464543269230766  C 14.44981971153846 3.065805288461539  15.020733173076923 3.9221754807692304  15.443209134615383 4.915564903846153  C 15.865685096153847 5.908954326923077  16.076923076923077 6.94991987179487  16.076923076923077 8.03846153846154  C 16.076923076923077 9.713141025641026  15.60496794871795 11.231770833333332  14.661057692307693 12.59435096153846  L 18.57752403846154 16.510817307692307  Z " fill-rule="nonzero" fill="#120238" stroke="none" transform="matrix(1 0 0 1 345 48 )" />
  </g>
</svg>