<?xml version="1.0" encoding="utf-8"?>
<svg version="1.1" xmlns:xlink="http://www.w3.org/1999/xlink" width="17px" height="19px" xmlns="http://www.w3.org/2000/svg">
  <g transform="matrix(1 0 0 1 -228 -784 )">
    <path d="M 2.623046875 15.85997596153846  C 2.7632378472222223 15.71534455128205  2.833333333333333 15.544070512820513  2.833333333333333 15.346153846153847  C 2.833333333333333 15.14823717948718  2.7632378472222223 14.976963141025642  2.623046875 14.83233173076923  C 2.482855902777778 14.68770032051282  2.316840277777778 14.615384615384613  2.125 14.615384615384613  C 1.9331597222222223 14.615384615384613  1.7671440972222223 14.68770032051282  1.626953125 14.83233173076923  C 1.486762152777778 14.976963141025642  1.4166666666666665 15.14823717948718  1.4166666666666665 15.346153846153847  C 1.4166666666666665 15.544070512820513  1.486762152777778 15.71534455128205  1.626953125 15.85997596153846  C 1.7671440972222223 16.004607371794872  1.9331597222222223 16.076923076923077  2.125 16.076923076923077  C 2.316840277777778 16.076923076923077  2.482855902777778 16.004607371794872  2.623046875 15.85997596153846  Z M 15.345377604166668 9.694110576923077  C 15.504014756944446 9.34395032051282  15.583333333333332 9.03565705128205  15.583333333333332 8.76923076923077  C 15.583333333333332 8.381009615384613  15.439453125 8.040364583333332  15.151692708333332 7.747295673076923  C 14.863932291666668 7.454226762820513  14.535590277777779 7.307692307692307  14.166666666666668 7.307692307692307  L 10.270833333333332 7.307692307692307  C 10.270833333333332 6.866185897435896  10.447916666666668 6.259114583333332  10.802083333333332 5.486478365384616  C 11.15625 4.713842147435896  11.333333333333332 4.102964743589743  11.333333333333332 3.6538461538461533  C 11.333333333333332 2.907852564102562  11.215277777777777 2.3559695512820498  10.979166666666668 1.9981971153846163  C 10.743055555555557 1.6404246794871784  10.270833333333334 1.4615384615384606  9.5625 1.4615384615384606  C 9.370659722222223 1.6594551282051264  9.23046875 1.982972756410255  9.141927083333332 2.4320913461538467  C 9.053385416666668 2.8812099358974357  8.940863715277777 3.3588741987179462  8.804361979166668 3.8650841346153837  C 8.667860243055557 4.371294070512819  8.448350694444446 4.788060897435896  8.145833333333334 5.115384615384616  C 7.983506944444445 5.290464743589743  7.699435763888889 5.636818910256409  7.293619791666666 6.154447115384616  C 7.264105902777779 6.192508012820513  7.179253472222223 6.3066907051282035  7.0390625 6.496995192307693  C 6.898871527777779 6.687299679487179  6.782660590277779 6.843349358974359  6.6904296875 6.96514423076923  C 6.598198784722223 7.086939102564101  6.470920138888889 7.248697916666666  6.30859375 7.450420673076923  C 6.146267361111112 7.652143429487179  5.998697916666666 7.819611378205127  5.865885416666666 7.95282451923077  C 5.733072916666666 8.086037660256409  5.591037326388888 8.221153846153845  5.439778645833334 8.358173076923077  C 5.288519965277779 8.495192307692307  5.140950520833334 8.59795673076923  4.9970703125 8.666466346153847  C 4.853190104166667 8.73497596153846  4.722222222222223 8.76923076923077  4.604166666666666 8.76923076923077  L 4.25 8.76923076923077  L 4.25 16.076923076923077  L 4.604166666666666 16.076923076923077  C 4.700086805555556 16.076923076923077  4.816297743055556 16.088341346153847  4.952799479166666 16.111177884615387  C 5.089301215277779 16.134014423076923  5.211046006944445 16.158754006410255  5.318033854166666 16.185396634615387  C 5.425021701388889 16.21203926282051  5.565212673611112 16.25390625  5.738606770833334 16.310997596153847  C 5.912000868055556 16.368088942307693  6.041124131944445 16.411858974358974  6.1259765625 16.442307692307693  C 6.210828993055556 16.472756410256412  6.341796875 16.52033253205128  6.518880208333334 16.585036057692307  C 6.695963541666666 16.649739583333336  6.802951388888889 16.689703525641026  6.83984375 16.704927884615383  C 8.39670138888889 17.26061698717949  9.65842013888889 17.53846153846154  10.625 17.53846153846154  L 11.964192708333332 17.53846153846154  C 13.380859375 17.53846153846154  14.089192708333332 16.90284455128205  14.089192708333332 15.631610576923077  C 14.089192708333332 15.43369391025641  14.070746527777779 15.220552884615387  14.033854166666668 14.9921875  C 14.255208333333332 14.870392628205128  14.430447048611112 14.670572916666666  14.5595703125 14.392728365384613  C 14.68869357638889 14.114883814102562  14.753255208333332 13.835136217948715  14.753255208333332 13.553485576923077  C 14.753255208333332 13.271834935897436  14.686848958333332 13.009214743589743  14.554036458333332 12.765625  C 14.945095486111112 12.385016025641026  15.140625 11.932091346153847  15.140625 11.40685096153846  C 15.140625 11.216546474358973  15.10373263888889 11.005308493589743  15.029947916666668 10.77313701923077  C 14.956163194444446 10.540965544871794  14.863932291666668 10.360176282051283  14.753255208333332 10.23076923076923  C 14.989366319444446 10.22315705128205  15.18674045138889 10.044270833333332  15.345377604166668 9.694110576923077  Z M 16.158854166666668 6.713942307692307  C 16.719618055555554 7.292467948717946  17 7.973758012820513  17 8.7578125  C 17 9.435296474358973  16.819227430555554 10.055689102564102  16.457682291666668 10.618990384615387  C 16.524088541666668 10.870192307692307  16.557291666666668 11.1328125  16.557291666666668 11.40685096153846  C 16.557291666666668 11.992988782051283  16.417100694444446 12.541065705128203  16.13671875 13.05108173076923  C 16.158854166666668 13.2109375  16.169921875 13.374599358974358  16.169921875 13.542067307692307  C 16.169921875 14.310897435897436  15.948567708333332 14.988381410256409  15.505859375 15.57451923076923  C 15.513237847222223 16.63261217948718  15.199652777777779 17.468048878205128  14.565104166666668 18.080829326923077  C 13.930555555555557 18.693609775641026  13.093098958333332 19  12.052734375 19  L 11.654296875 19  L 10.625 19  C 9.916666666666668 19  9.217556423611112 18.91436298076923  8.527669270833332 18.743088942307693  C 7.837782118055556 18.571814903846153  7.0390625 18.322516025641026  6.131510416666666 17.995192307692307  C 5.275607638888889 17.690705128205128  4.766493055555556 17.53846153846154  4.604166666666666 17.53846153846154  L 1.4166666666666665 17.53846153846154  C 1.0256076388888888 17.53846153846154  0.6917317708333334 17.395733173076923  0.4150390625 17.110276442307693  C 0.13834635416666669 16.82481971153846  0 16.480368589743588  0 16.076923076923077  L 0 8.76923076923077  C 0 8.365785256410255  0.13834635416666669 8.021334134615383  0.4150390625 7.735877403846153  C 0.6917317708333334 7.450420673076923  1.0256076388888888 7.307692307692307  1.4166666666666665 7.307692307692307  L 4.44921875 7.307692307692307  C 4.714843750000001 7.125  5.220269097222223 6.535056089743589  5.965494791666666 5.537860576923077  C 6.393446180555556 4.966947115384616  6.788194444444445 4.479767628205127  7.149739583333334 4.076322115384616  C 7.326822916666666 3.8860176282051264  7.457790798611112 3.5605969551282035  7.542643229166666 3.1000600961538467  C 7.627495659722223 2.6395232371794854  7.740017361111112 2.1580528846153837  7.880208333333334 1.6556490384615394  C 8.020399305555555 1.153245192307693  8.249131944444445 0.7421875  8.56640625 0.42247596153846056  C 8.854166666666668 0.1408253205128216  9.186197916666668 0  9.5625 0  C 10.182291666666668 0  10.739366319444446 0.12369791666666807  11.233723958333332 0.37109375  C 11.728081597222223 0.6184895833333319  12.104383680555557 1.004807692307693  12.362630208333332 1.5300480769230766  C 12.620876736111112 2.055288461538461  12.75 2.7632211538461533  12.75 3.6538461538461533  C 12.75 4.361778846153847  12.572916666666668 5.092548076923077  12.21875 5.846153846153847  L 14.166666666666668 5.846153846153847  C 14.934027777777779 5.846153846153847  15.598090277777779 6.135416666666666  16.158854166666668 6.713942307692307  Z " fill-rule="nonzero" fill="#712ed1" stroke="none" transform="matrix(1 0 0 1 228 784 )" />
  </g>
</svg>