<?xml version="1.0" encoding="utf-8"?>
<svg version="1.1" xmlns:xlink="http://www.w3.org/1999/xlink" width="24px" height="22px" xmlns="http://www.w3.org/2000/svg">
  <g transform="matrix(1 0 0 1 -346 -48 )">
    <path d="M 20.004807692307693 13.75  C 20.20673076923077 13.8359375  20.307692307692307 13.974392361111109  20.307692307692307 14.165364583333332  L 20.307692307692307 17.875  C 20.307692307692307 19.01128472222222  19.90144230769231 19.98285590277778  19.088942307692307 20.789713541666664  C 18.276442307692307 21.596571180555554  17.298076923076923 22  16.153846153846153 22  L 4.153846153846153 22  C 3.0096153846153846 22  2.03125 21.596571180555554  1.21875 20.789713541666664  C 0.40625 19.98285590277778  0 19.01128472222222  0 17.875  L 0 5.958333333333334  C 0 4.822048611111109  0.40625 3.8504774305555545  1.21875 3.043619791666666  C 2.03125 2.236762152777775  3.0096153846153846 1.8333333333333341  4.153846153846153 1.8333333333333341  L 7.831730769230768 1.8333333333333341  C 7.956730769230771 1.8333333333333341  8.064903846153847 1.878689236111109  8.15625 1.9694010416666659  C 8.247596153846153 2.0601128472222205  8.293269230769232 2.1675347222222205  8.293269230769232 2.291666666666666  C 8.293269230769232 2.549479166666666  8.168269230769232 2.702256944444443  7.918269230769232 2.75  C 7.177884615384616 2.9982638888888884  6.538461538461539 3.2847222222222205  6 3.609375  C 5.903846153846154 3.647569444444443  5.826923076923077 3.666666666666666  5.769230769230769 3.666666666666666  L 4.153846153846153 3.666666666666666  C 3.519230769230769 3.666666666666666  2.9759615384615388 3.891059027777775  2.5240384615384617 4.33984375  C 2.072115384615385 4.7886284722222205  1.8461538461538463 5.328125  2 5.958333333333334  L 2 17.875  C 1.8461538461538463 18.505208333333336  2.072115384615385 19.044704861111107  2.5240384615384617 19.493489583333336  C 2.9759615384615388 19.942274305555554  3.519230769230769 20.166666666666664  4.153846153846153 20  L 16.153846153846153 20  C 16.788461538461537 20.166666666666664  17.33173076923077 19.942274305555554  17.783653846153847 19.493489583333336  C 18.235576923076923 19.044704861111107  18.461538461538463 18.505208333333336  18.461538461538463 17.875  L 18.461538461538463 14.809895833333332  C 18.461538461538463 14.628472222222223  18.548076923076923 14.490017361111109  18.721153846153847 14.39453125  C 18.990384615384617 14.270399305555554  19.25 14.09375  19.5 13.864583333333332  C 19.653846153846157 13.711805555555554  19.822115384615387 13.673611111111109  20.004807692307693 13.75  Z M 24 6.416666666666666  C 24 6.6649305555555545  23.908653846153847 6.8797743055555545  23.725961538461537 7.061197916666666  L 18.1875 12.561197916666668  C 18.014423076923077 12.742621527777777  17.798076923076923 12.833333333333332  17.538461538461537 12.833333333333332  C 17.423076923076923 12.833333333333332  17.302884615384617 12.809461805555554  17.177884615384613 12.76171875  C 16.802884615384613 12.599392361111109  16.615384615384613 12.317708333333332  16.615384615384613 11.916666666666668  L 16.615384615384613 9.166666666666666  L 14.307692307692307 9.166666666666666  C 11.201923076923078 9.166666666666666  9.096153846153847 9.792100694444443  7.990384615384615 11.04296875  C 6.846153846153847 12.351128472222223  6.490384615384617 14.609375  6.9230769230769225 17.817708333333336  C 6.9519230769230775 18.03732638888889  6.855769230769232 18.199652777777775  6.634615384615385 18.3046875  C 6.557692307692308 18.32378472222222  6.500000000000001 18.333333333333336  6.461538461538462 18.333333333333336  C 6.307692307692308 18.333333333333336  6.182692307692308 18.271267361111107  6.086538461538462 18.147135416666664  C 5.990384615384616 18.013454861111107  5.8894230769230775 17.86545138888889  5.783653846153847 17.703125  C 5.677884615384617 17.540798611111107  5.48798076923077 17.213758680555554  5.2139423076923075 16.722005208333336  C 4.939903846153847 16.230251736111107  4.701923076923077 15.755208333333332  4.5 15.296875  C 4.298076923076923 14.838541666666668  4.11298076923077 14.294270833333332  3.9447115384615388 13.6640625  C 3.776442307692308 13.033854166666668  3.6923076923076925 12.451388888888886  3.6923076923076925 11.916666666666668  C 3.6923076923076925 11.448784722222223  3.709134615384616 11.014322916666668  3.7427884615384612 10.61328125  C 3.776442307692308 10.212239583333332  3.84375 9.782552083333332  3.9447115384615388 9.32421875  C 4.045673076923077 8.865885416666666  4.180288461538463 8.445746527777775  4.3485576923076925 8.063802083333334  C 4.516826923076923 7.681857638888888  4.742788461538463 7.292751736111109  5.0264423076923075 6.896484375  C 5.310096153846154 6.500217013888888  5.639423076923077 6.146918402777775  6.0144230769230775 5.836588541666666  C 6.3894230769230775 5.5262586805555545  6.843750000000002 5.232638888888888  7.377403846153847 4.955729166666666  C 7.9110576923076925 4.678819444444443  8.509615384615385 4.447265625  9.173076923076923 4.261067708333334  C 9.836538461538462 4.074869791666666  10.603365384615387 3.9292534722222205  11.473557692307693 3.82421875  C 12.343750000000002 3.719184027777775  13.28846153846154 3.666666666666666  14.307692307692307 3.666666666666666  L 16.615384615384613 3.666666666666666  L 16.615384615384613 0.9166666666666659  C 16.615384615384613 0.515625  16.802884615384613 0.23394097222222032  17.177884615384613 0.07161458333333415  C 17.302884615384617 0.023871527777779677  17.423076923076923 0  17.538461538461537 0  C 17.78846153846154 0  18.004807692307693 0.09071180555555691  18.1875 0.27213541666666585  L 23.725961538461537 5.772135416666666  C 23.908653846153847 5.953559027777775  24 6.168402777777775  24 6.416666666666666  Z " fill-rule="nonzero" fill="#712ed1" stroke="none" transform="matrix(1 0 0 1 346 48 )" />
  </g>
</svg>