<?xml version="1.0" encoding="utf-8"?>
<svg version="1.1" xmlns:xlink="http://www.w3.org/1999/xlink" width="10px" height="15px" xmlns="http://www.w3.org/2000/svg">
  <g transform="matrix(1 0 0 1 -20 -49 )">
    <path d="M 10 2.1401985111662523  C 10 2.3014888337468973  9.938867438867439 2.441066997518609  9.816602316602317 2.55893300248139  L 4.691119691119691 7.5  L 9.816602316602317 12.44106699751861  C 9.938867438867439 12.558933002481389  10 12.698511166253102  10 12.859801488833748  C 10 13.02109181141439  9.938867438867439 13.160669975186105  9.816602316602317 13.278535980148883  L 8.214285714285714 14.823200992555831  C 8.092020592020592 14.941066997518611  7.947232947232948 15  7.77992277992278 15  C 7.6126126126126135 15  7.467824967824969 14.941066997518611  7.345559845559846 14.823200992555831  L 0.18339768339768342 7.918734491315136  C 0.06113256113256123 7.800868486352356  0 7.661290322580645  0 7.5  C 0 7.338709677419355  0.06113256113256123 7.199131513647642  0.18339768339768342 7.081265508684864  L 7.345559845559846 0.17679900744416832  C 7.467824967824969 0.058933002481388885  7.6126126126126135 0  7.77992277992278 0  C 7.947232947232948 0  8.092020592020592 0.058933002481388885  8.214285714285714 0.17679900744416832  L 9.816602316602317 1.7214640198511166  C 9.938867438867439 1.8393300248138944  10 1.978908188585606  10 2.1401985111662523  Z " fill-rule="nonzero" fill="#120238" stroke="none" transform="matrix(1 0 0 1 20 49 )" />
  </g>
</svg>