<?xml version="1.0" encoding="utf-8"?>
<svg version="1.1" xmlns:xlink="http://www.w3.org/1999/xlink" width="6px" height="6px" xmlns="http://www.w3.org/2000/svg">
  <g transform="matrix(1 0 0 1 -30 -562 )">
    <path d="M 33 562  C 34.68 562  36 563.32  36 565  C 36 566.68  34.68 568  33 568  C 31.32 568  30 566.68  30 565  C 30 563.32  31.32 562  33 562  Z " fill-rule="nonzero" fill="#490871" stroke="none" />
    <path d="M 33 562.5  C 34.4 562.5  35.5 563.6  35.5 565  C 35.5 566.4  34.4 567.5  33 567.5  C 31.6 567.5  30.5 566.4  30.5 565  C 30.5 563.6  31.6 562.5  33 562.5  Z " stroke-width="1" stroke="#797979" fill="none" />
  </g>
</svg>