<?xml version="1.0" encoding="utf-8"?>
<svg version="1.1" xmlns:xlink="http://www.w3.org/1999/xlink" width="12px" height="18px" xmlns="http://www.w3.org/2000/svg">
  <g transform="matrix(1 0 0 1 -30 -689 )">
    <path d="M 11.703125 0.28125  C 11.901041666666666 0.46874999999999734  12 0.6907894736842082  12 0.9473684210526325  L 12 17.05263157894737  C 12 17.309210526315788  11.901041666666666 17.53125  11.703125 17.71875  C 11.505208333333334 17.90625  11.270833333333334 18  11 18  C 10.729166666666668 18  10.494791666666668 17.90625  10.296875 17.71875  L 5.09375 12.789473684210526  L 1 12.789473684210526  C 0.7291666666666667 12.789473684210526  0.49479166666666663 12.695723684210527  0.296875 12.508223684210526  C 0.09895833333333334 12.320723684210524  0 12.098684210526315  0 11.842105263157896  L 0 6.157894736842104  C 0 5.901315789473682  0.09895833333333334 5.679276315789471  0.296875 5.491776315789474  C 0.49479166666666663 5.304276315789473  0.7291666666666667 5.210526315789474  1 5.210526315789474  L 5.09375 5.210526315789474  L 10.296875 0.28125  C 10.494791666666668 0.09374999999999867  10.729166666666668 0  11 0  C 11.270833333333334 0  11.505208333333334 0.09374999999999867  11.703125 0.28125  Z " fill-rule="nonzero" fill="#490871" stroke="none" transform="matrix(1 0 0 1 30 689 )" />
  </g>
</svg>