<?xml version="1.0" encoding="utf-8"?>
<svg version="1.1" xmlns:xlink="http://www.w3.org/1999/xlink" width="21px" height="18px" xmlns="http://www.w3.org/2000/svg">
  <g transform="matrix(1 0 0 1 -339 -689 )">
    <path d="M 9.452524038461538 1.5443037974683549  C 9.612379807692307 1.7046413502109694  9.692307692307693 1.894514767932488  10 2.113924050632911  L 10 15.88607594936709  C 9.692307692307693 16.105485232067508  9.612379807692307 16.29535864978903  9.452524038461538 16.455696202531644  C 9.29266826923077 16.616033755274263  9.103365384615385 16.696202531645568  8.884615384615385 16.696202531645568  C 8.665865384615385 16.696202531645568  8.4765625 16.616033755274263  8.316706730769232 16.455696202531644  L 4.1141826923076925 12.240506329113924  L 0.8076923076923077 12.240506329113924  C 0.5889423076923078 12.240506329113924  0.39963942307692313 12.160337552742616  0.23978365384615383 12.000000000000002  C 0.07992788461538461 11.839662447257382  0 11.649789029535864  0 11.430379746835444  L 0 6.5696202531645564  C 0 6.350210970464134  0.07992788461538461 6.160337552742613  0.23978365384615383 6.000000000000001  C 0.39963942307692313 5.839662447257382  0.5889423076923078 5.759493670886076  0.8076923076923077 5.759493670886076  L 4.1141826923076925 5.759493670886076  L 8.316706730769232 1.5443037974683549  C 8.4765625 1.3839662447257384  8.665865384615385 1.303797468354431  8.884615384615385 1.303797468354431  C 9.103365384615385 1.303797468354431  9.29266826923077 1.3839662447257384  9.452524038461538 1.5443037974683549  Z M 14.002103365384615 7.20253164556962  C 14.359675480769232 7.7594936708860756  14.538461538461538 8.358649789029535  14.538461538461538 9  C 14.538461538461538 9.641350210970463  14.359675480769232 10.238396624472575  14.002103365384615 10.791139240506329  C 13.64453125 11.343881856540081  13.171274038461538 11.738396624472573  12.582331730769232 11.974683544303797  C 12.498197115384619 12.0168776371308  12.393028846153847 12.037974683544302  12.266826923076923 12.037974683544302  C 12.048076923076925 12.037974683544302  11.858774038461538 11.959915611814344  11.698918269230768 11.80379746835443  C 11.539062500000002 11.647679324894511  11.459134615384615 11.455696202531644  11.459134615384615 11.227848101265822  C 11.459134615384615 11.050632911392404  11.509615384615385 10.900843881856538  11.610576923076923 10.778481012658228  C 11.711538461538462 10.656118143459915  11.833533653846155 10.550632911392405  11.9765625 10.462025316455698  C 12.119591346153848 10.373417721518987  12.262620192307693 10.276371308016875  12.405649038461538 10.170886075949369  C 12.548677884615385 10.065400843881855  12.670673076923077 9.913502109704641  12.771634615384615 9.715189873417721  C 12.872596153846155 9.5168776371308  12.923076923076923 9.278481012658228  12.923076923076923 9  C 12.923076923076923 8.721518987341772  12.872596153846155 8.483122362869198  12.771634615384615 8.284810126582277  C 12.670673076923077 8.086497890295357  12.548677884615385 7.934599156118143  12.405649038461538 7.829113924050634  C 12.262620192307693 7.723628691983123  12.119591346153848 7.626582278481013  11.9765625 7.537974683544305  C 11.833533653846155 7.449367088607595  11.711538461538462 7.343881856540083  11.610576923076923 7.2215189873417724  C 11.509615384615385 7.099156118143459  11.459134615384615 6.949367088607594  11.459134615384615 6.772151898734177  C 11.459134615384615 6.544303797468353  11.539062500000002 6.352320675105484  11.698918269230768 6.19620253164557  C 11.858774038461538 6.0400843881856545  12.048076923076925 5.962025316455695  12.266826923076923 5.962025316455695  C 12.393028846153847 5.962025316455695  12.498197115384619 5.9831223628691985  12.582331730769232 6.025316455696203  C 13.171274038461538 6.253164556962027  13.64453125 6.645569620253165  14.002103365384615 7.20253164556962  Z M 16.696514423076923 5.424050632911392  C 17.411658653846157 6.5168776371308015  17.76923076923077 7.708860759493671  17.76923076923077 9  C 17.76923076923077 10.291139240506329  17.411658653846157 11.483122362869196  16.696514423076923 12.575949367088606  C 15.981370192307695 13.668776371308017  15.03485576923077 14.464135021097043  13.856971153846155 14.962025316455698  C 13.747596153846157 15.0042194092827  13.642427884615385 15.025316455696203  13.541466346153845 15.025316455696203  C 13.314302884615385 15.025316455696203  13.12079326923077 14.945147679324895  12.9609375 14.784810126582279  C 12.801081730769232 14.624472573839661  12.721153846153847 14.434599156118143  12.721153846153845 14.215189873417721  C 12.721153846153847 13.886075949367088  12.885216346153847 13.637130801687764  13.213341346153845 13.468354430379748  C 13.684495192307695 13.223628691983121  14.004206730769232 13.037974683544302  14.172475961538462 12.91139240506329  C 14.795072115384619 12.455696202531644  15.28094951923077 11.883966244725737  15.630108173076923 11.196202531645568  C 15.979266826923077 10.5084388185654  16.153846153846153 9.776371308016877  16.153846153846153 9  C 16.153846153846153 8.223628691983121  15.979266826923077 7.491561181434598  15.630108173076923 6.803797468354429  C 15.28094951923077 6.116033755274261  14.795072115384619 5.544303797468355  14.172475961538462 5.0886075949367084  C 14.004206730769232 4.962025316455697  13.684495192307695 4.776371308016877  13.213341346153845 4.5316455696202524  C 12.885216346153847 4.362869198312235  12.721153846153847 4.113924050632912  12.721153846153845 3.7848101265822773  C 12.721153846153847 3.5654008438818545  12.801081730769232 3.3755274261603363  12.9609375 3.2151898734177218  C 13.12079326923077 3.054852320675105  13.310096153846155 2.9746835443037978  13.528846153846155 2.9746835443037978  C 13.638221153846155 2.9746835443037978  13.747596153846157 2.9957805907172967  13.856971153846155 3.037974683544305  C 15.03485576923077 3.5358649789029526  15.981370192307695 4.33122362869198  16.696514423076923 5.424050632911392  Z M 19.397235576923077 3.651898734177215  C 20.465745192307693 5.276371308016877  21 7.059071729957804  21 9  C 21 10.940928270042193  20.465745192307693 12.72362869198312  19.397235576923077 14.348101265822786  C 18.328725961538463 15.972573839662447  16.906850961538463 17.168776371308017  15.131610576923077 17.93670886075949  C 15.022235576923078 17.9789029535865  14.912860576923077 18  14.803485576923077 18  C 14.584735576923077 18  14.395432692307693 17.91983122362869  14.235576923076923 17.759493670886076  C 14.075721153846157 17.59915611814346  13.995793269230768 17.40928270042194  13.995793269230768 17.189873417721518  C 13.995793269230768 16.886075949367086  14.159855769230768 16.637130801687764  14.487980769230768 16.443037974683545  C 14.546875 16.40928270042194  14.641526442307693 16.364978902953588  14.771935096153845 16.310126582278482  C 14.902343750000002 16.255274261603375  14.996995192307695 16.210970464135023  15.055889423076923 16.17721518987342  C 15.442908653846155 15.966244725738397  15.787860576923077 15.751054852320674  16.090745192307693 15.531645569620252  C 17.125600961538463 14.763713080168776  17.93329326923077 13.805907172995779  18.513822115384613 12.658227848101266  C 19.094350961538463 11.51054852320675  19.384615384615387 10.291139240506329  19.384615384615387 9  C 19.384615384615387 7.708860759493671  19.094350961538463 6.489451476793249  18.513822115384613 5.341772151898734  C 17.93329326923077 4.194092827004219  17.125600961538463 3.2362869198312225  16.090745192307693 2.4683544303797467  C 15.787860576923077 2.248945147679324  15.442908653846155 2.0337552742616016  15.055889423076923 1.822784810126582  C 14.996995192307695 1.7890295358649773  14.902343750000002 1.744725738396623  14.771935096153845 1.6898734177215193  C 14.641526442307693 1.6350210970464116  14.546875 1.5907172995780574  14.487980769230768 1.5569620253164567  C 14.159855769230768 1.3628691983122334  13.995793269230768 1.1139240506329104  13.995793269230768 0.8101265822784818  C 13.995793269230768 0.590717299578057  14.075721153846157 0.4008438818565383  14.235576923076923 0.24050632911392378  C 14.395432692307693 0.08016877637130726  14.584735576923077 0  14.803485576923077 0  C 14.912860576923077 0  15.022235576923078 0.021097046413500964  15.131610576923077 0.06329113924050689  C 16.906850961538463 0.8312236286919807  18.328725961538463 2.0274261603375505  19.397235576923077 3.651898734177215  Z " fill-rule="nonzero" fill="#490871" stroke="none" transform="matrix(1 0 0 1 339 689 )" />
  </g>
</svg>